<svg width="119" height="100" viewBox="0 0 119 100" fill="none" xmlns="http://www.w3.org/2000/svg">
<path d="M56.9851 34.1835C56.9721 34.0306 56.9187 33.884 56.8305 33.7585C56.7422 33.633 56.6222 33.5332 56.4828 33.4693C54.2424 32.6312 52.5925 34.6597 50.9593 36.0882C49.5323 37.3414 48.1846 38.682 46.9238 40.1022C49.0189 35.0025 51.0497 29.8171 51.9092 24.4174C52.0045 23.8222 51.3688 23.1294 50.7474 23.4389C44.9596 26.3221 42.1574 33.6455 40.5456 40.1713C39.1171 32.9788 36.4506 26.1459 33.6746 19.3296C33.4508 18.7797 32.5604 18.4773 32.1794 19.0725C27.3559 26.584 30.1248 35.1216 32.9841 42.9782C29.8878 39.7705 26.4556 36.905 22.7466 34.4311C20.4849 32.8955 18.1588 31.4575 15.8161 30.0504C14.6257 29.3362 12.483 27.372 10.9188 27.6696C10.7666 27.685 10.6209 27.7392 10.4958 27.8272C10.3707 27.9152 10.2704 28.0339 10.2045 28.172C8.77604 32.405 15.6994 38.188 18.166 40.8331C21.6991 44.6234 25.6679 46.997 30.0105 49.2922C23.0914 48.9299 16.1545 49.113 9.2641 49.8397C8.64509 49.904 8.17607 50.6873 8.62366 51.2206C11.1592 54.2561 15.4376 55.5823 19.2516 56.1013C21.9015 56.4608 24.4442 56.0584 26.9702 55.5751C26.5321 55.7775 26.0964 55.987 25.6655 56.2108C22.5157 57.8393 17.6898 60.5962 15.9613 63.8961C13.7948 68.0268 20.0873 67.0673 22.2586 66.3816C25.6623 65.2423 28.914 63.6912 31.9413 61.7629C35.6126 59.4106 38.7409 55.5727 43.1978 55.0609C46.769 54.6514 49.6546 54.3823 53.0758 53.1086C55.4328 52.2301 58.8969 51.523 60.7158 49.7397C60.8153 49.6229 60.8815 49.4815 60.9075 49.3302C60.9335 49.179 60.9183 49.0236 60.8635 48.8803C58.9469 44.6591 53.721 45.2733 49.6736 46.4995C51.1872 44.6519 52.5919 42.7178 53.8805 40.7069C54.9757 38.9547 57.2232 36.4048 56.9851 34.1835Z" fill="#F4C916"/>
<path d="M24.6728 60.1041C22.1991 60.3826 19.2517 62.0492 16.9066 62.8158C23.2681 62.9372 25.0846 70.0249 22.6395 67.675C19.5778 64.7323 17.516 64.4443 16.4137 64.6704C15.0305 64.9514 12.9449 66.2585 11.733 67.5274C10.5212 68.7964 9.84268 70.3701 9.19034 71.9153C10.3355 71.7224 11.2093 71.5129 12.4663 72.0129C13.5068 72.4248 14.1615 73.2938 12.9544 72.9652C9.07606 71.8891 6.76429 75.7841 6.43574 77.3173C6.33575 77.7792 6.00243 78.6649 5.04058 79.8648C4.92868 80.0029 4.89297 80.1291 5.08344 80.1291C7.39997 80.1291 7.94041 80.7695 10.0498 80.9409C14.2924 81.2861 15.5257 77.2269 15.4471 78.7339C15.3733 79.9743 14.1258 80.8528 12.9163 81.9004C15.8233 82.5623 21.2492 85.0669 22.1324 85.3478C23.9014 85.9073 25.6489 85.3478 26.5703 80.4552C26.9988 78.1744 25.806 76.1698 27.3917 77.0054C28.1678 77.4078 29.9558 84.4098 24.7728 85.9811C24.1704 86.1644 32.2699 87.1858 37.1816 80.7886C41.0789 75.7127 40.3814 69.2107 36.0126 63.8086C33.3104 60.4636 29.313 59.5827 24.6728 60.1041Z" fill="#A6CE28"/>
<path d="M6.77135 60.5242L6.78801 60.5361C6.83945 60.5727 6.87716 60.6255 6.89515 60.6861C6.92169 60.7257 6.9373 60.7717 6.94039 60.8194C6.97372 61.4336 6.49279 62.0693 6.20948 62.5836C5.87963 63.2258 5.50491 63.8439 5.08811 64.4335C4.78099 64.8382 4.25007 65.2501 3.73819 64.943C3.22632 64.6358 3.48107 63.9359 3.67153 63.5145C3.90961 62.9955 4.30959 62.5621 4.55719 62.0717C4.13817 62.155 3.7001 62.4121 3.29298 62.5598C2.77244 62.7683 2.2368 62.9371 1.69069 63.0645C1.16453 63.1669 -0.197291 63.0645 0.024125 62.1384C0.324107 60.948 3.70724 61.0027 4.03341 60.8194C3.91437 60.6575 3.55725 60.5956 3.38345 60.5337C3.02633 60.4123 0.912167 59.6195 1.08359 58.9957C1.17644 58.6576 1.79783 58.341 3.70248 58.81C4.75004 59.0671 6.02377 59.7194 6.75468 60.5218L6.77135 60.5242Z" fill="#F56049"/>
<path d="M13.2162 61.0007C13.2435 61.0371 13.2615 61.0796 13.2686 61.1245V61.1245C13.2904 61.1428 13.3073 61.1663 13.3175 61.1928C13.3276 61.2194 13.3309 61.2481 13.3268 61.2763C13.3228 61.3045 13.3116 61.3311 13.2943 61.3537C13.277 61.3763 13.2542 61.3942 13.2281 61.4055C13.2254 61.4181 13.2206 61.4302 13.2138 61.4412C13.2151 61.4662 13.2093 61.4911 13.1971 61.513C13.1849 61.5349 13.1668 61.5529 13.1448 61.565L12.9329 61.6959C12.9135 61.7237 12.8912 61.7492 12.8662 61.7721C11.8853 62.7244 11.1139 63.8529 10.1354 64.8029C9.62593 65.2957 8.49742 66.3766 7.69985 65.8838C6.37612 65.0624 10.1116 62.3578 11.5091 61.4864L11.6377 61.3531C11.5686 61.3448 11.5016 61.3238 11.4401 61.2912C9.67592 60.2841 7.59033 59.258 7.0737 57.1057C7.02132 56.8891 7.29511 56.801 7.45463 56.7986C8.64503 56.77 9.55926 57.5795 10.4497 58.2795C11.4949 59.0524 12.4261 59.9684 13.2162 61.0007V61.0007Z" fill="#F56049"/>
<path d="M25.4751 64.4833C25.4855 64.528 25.4855 64.5744 25.4751 64.619C25.5251 64.7167 25.4608 64.8786 25.3346 64.8571C25.3271 64.867 25.3183 64.8758 25.3084 64.8833C25.3004 64.9075 25.2856 64.9289 25.2657 64.9449C25.2459 64.961 25.2219 64.971 25.1965 64.9738L24.9584 65.0166C24.9305 65.0371 24.9001 65.0539 24.868 65.0666C23.6085 65.5833 22.4729 66.357 21.2134 66.8808C20.5587 67.1522 19.1135 67.7427 18.5517 66.9903C17.6232 65.7428 22.0919 64.5976 23.7133 64.3024L23.8847 64.2262C23.8232 64.1928 23.7683 64.1485 23.7228 64.0953C22.4514 62.512 20.8873 60.7883 21.1991 58.6003C21.2301 58.3789 21.5158 58.398 21.6753 58.4527C22.7943 58.8646 23.3419 59.9527 23.918 60.9312C24.6018 62.0318 25.1283 63.2226 25.4822 64.4691L25.4751 64.4833Z" fill="#F56049"/>
<path d="M17.4923 58.3978C16.9899 57.8455 16.2852 57.2074 15.5114 57.136C15.1519 57.0955 14.7305 57.2265 14.5924 57.5622C14.5421 57.7008 14.5282 57.85 14.5519 57.9955C14.6087 58.3356 14.7256 58.6629 14.8972 58.9621C15.6779 60.4363 16.8556 61.6626 18.297 62.5024C17.4574 62.6857 16.6284 62.9146 15.8138 63.188C14.9614 63.488 14.1115 63.9023 13.5472 64.6165C13.2925 64.9308 13.0997 65.3665 13.2687 65.7331C13.3423 65.8738 13.4522 65.9921 13.587 66.0759C13.7218 66.1596 13.8766 66.2057 14.0353 66.2093C14.3506 66.2111 14.6625 66.1445 14.9495 66.0141C16.5756 65.3712 17.9446 64.2356 19.285 63.1166C19.3906 63.0406 19.479 62.9433 19.5445 62.8309C19.6636 62.5928 19.4255 62.1667 19.3421 61.931C18.8898 60.6644 18.4089 59.4168 17.4923 58.405V58.3978Z" fill="#F56049"/>
<path d="M25.9297 69.5826C27.3249 69.1684 28.5224 68.2684 29.7057 67.3351C29.9247 67.1613 30.3866 66.909 30.4533 66.5971C30.4729 66.4556 30.4648 66.3117 30.4295 66.1733C30.0747 64.3091 29.7152 62.4069 28.8129 60.8284C28.6716 60.5379 28.4615 60.2862 28.201 60.0951C28.0651 60.0044 27.9059 59.9548 27.7424 59.9523C27.579 59.9497 27.4183 59.9944 27.2797 60.0808C26.9059 60.3308 26.7797 60.8593 26.7797 61.3117C26.7797 62.3211 27.1892 63.2282 27.682 64.0258C28.1594 64.7694 28.6793 65.4848 29.2391 66.1685C27.468 66.1219 25.7209 66.5855 24.206 67.5042C23.8667 67.6901 23.5609 67.9315 23.3013 68.2184C23.1868 68.3434 23.1014 68.4922 23.0513 68.6541C23.0145 68.8418 23.04 69.0363 23.1238 69.2081C23.2075 69.38 23.3451 69.5199 23.5156 69.6064C24.1941 69.9898 25.1679 69.816 25.9297 69.5898V69.5826Z" fill="#F56049"/>
<path d="M0.99082 61.9955C4.46681 60.1289 9.06654 60.3503 12.833 60.9669C14.9064 61.324 16.9605 61.7857 18.9874 62.3502C20.9182 62.8668 31.6057 66.4571 33.2913 67.588C33.5294 67.7546 33.3556 68.207 33.0532 68.0641C29.3273 66.3976 18.4969 62.2002 12.7997 61.5288C10.8617 61.2907 8.92131 61.0193 6.96904 61.086C4.92154 61.155 2.99547 61.5979 1.01701 62.0526C1.00736 62.0538 0.997587 62.0517 0.989286 62.0467C0.980985 62.0416 0.974653 62.0339 0.97133 62.0247C0.968007 62.0156 0.96789 62.0056 0.971 61.9964C0.974109 61.9872 0.980258 61.9793 0.988439 61.974L0.99082 61.9955Z" fill="#F56049"/>
<path d="M101.975 79.0949C104.173 78.7307 106.737 77.1022 108.787 76.307C103.099 76.4975 101.142 70.2502 103.437 72.2358C106.308 74.719 108.165 74.8809 109.151 74.6166C110.372 74.3 112.172 73.0358 113.198 71.8477C114.225 70.6597 114.753 69.2288 115.265 67.8004C114.248 68.0384 113.479 68.2575 112.332 67.8694C111.38 67.548 110.758 66.8052 111.856 67.048C115.372 67.8242 117.253 64.2387 117.477 62.8506C117.543 62.434 117.798 61.6269 118.603 60.5127C118.696 60.3841 118.722 60.2746 118.551 60.2746C116.482 60.3841 115.965 59.8389 114.077 59.7842C110.268 59.6746 109.346 63.3554 109.358 62.0078C109.358 60.8984 110.439 60.0532 111.47 59.0604C108.851 58.608 103.878 56.6248 103.073 56.4153C101.468 55.9987 99.9326 56.5701 99.3398 60.996C99.066 63.053 100.223 64.7791 98.7684 64.1172C98.0541 63.7934 96.1304 57.6224 100.69 55.9749C101.218 55.782 93.9329 55.2606 89.8475 61.196C86.6048 65.9147 87.5357 71.6906 91.6926 76.3094C94.2401 79.1854 97.8565 79.783 101.975 79.0949Z" fill="#A6CE28"/>
<path d="M100.461 47.1772C100.649 47.0533 100.793 46.8722 100.871 46.6605C100.949 46.4488 100.957 46.2177 100.894 46.0011C100.606 45.0178 99.4063 44.6773 98.5135 44.5988C97.6408 44.5505 96.7662 44.6479 95.9255 44.8868C96.466 44.3893 97.535 43.3893 98.1754 43.0179C99.0515 42.7322 100.468 44.094 103.116 43.9964C105.118 43.925 105.765 42.3179 105.634 41.8727C105.346 40.8895 104.146 40.5514 103.254 40.4728C102.445 40.4234 101.634 40.5038 100.851 40.7109C100.851 40.6823 100.828 40.6538 100.813 40.6252C101.19 40.3038 101.975 39.2396 102.925 39.161C103.513 39.111 111.139 42.6036 110.177 38.1729C109.96 37.173 105.954 37.0016 105.075 37.1897C102.337 37.7777 108.208 35.8183 109.401 34.3803C110.115 33.5304 110.222 32.7137 109.865 32.4923C109.689 32.3769 109.491 32.2994 109.283 32.265C109.075 32.2306 108.862 32.2399 108.658 32.2923C107.554 32.6093 106.535 33.1689 105.675 33.9303C104.776 34.7127 103.966 35.5909 103.258 36.5492C103.325 36.3421 103.377 36.1326 103.423 35.9302C103.537 35.3946 103.584 34.8466 103.561 34.2994C103.541 33.7505 103.447 33.2067 103.282 32.6828C103.132 32.2066 102.932 31.59 102.494 31.3091C101.48 30.6615 100.606 32.3804 100.328 33.1137C99.9733 34.0666 99.8652 35.0935 100.013 36.0993C100.09 36.6717 100.241 37.2318 100.461 37.7658C100.537 37.9515 100.63 38.1444 100.718 38.342C100.049 38.9933 99.4319 39.6962 98.873 40.4442C98.9396 40.2371 98.992 40.0276 99.0373 39.8252C99.152 39.2896 99.1984 38.7416 99.1753 38.1944C99.1556 37.6454 99.0619 37.1017 98.8968 36.5778C98.7468 36.1016 98.5468 35.485 98.1064 35.2041C97.0945 34.5565 96.3517 35.1493 95.6851 36.3945C94.7161 38.211 96.6779 41.9561 96.7564 42.1322C95.9517 42.8465 94.6708 43.9679 94.1375 44.575C94.2018 44.3678 94.2566 44.1583 94.3018 43.9536C94.4167 43.418 94.4631 42.87 94.4399 42.3227C94.4194 41.7744 94.3249 41.2315 94.159 40.7085C94.009 40.2324 93.809 39.6133 93.3709 39.3348C92.3567 38.6872 91.4853 40.4038 91.2068 41.1371C90.8516 42.0906 90.7427 43.1182 90.8901 44.125C90.9681 44.6972 91.1185 45.2572 91.3377 45.7916C91.5758 46.3677 91.9662 47.0034 91.8543 47.651C91.8162 47.8724 92.021 48.1271 92.2638 48.0343C93.3581 47.5923 94.5118 47.3147 95.6874 47.2105C96.2759 47.1625 96.867 47.1562 97.4564 47.1915C98.0159 47.2248 98.5611 47.3367 99.123 47.3891C99.5634 47.4295 100.073 47.4296 100.461 47.1772Z" fill="#F56049"/>
<path d="M79.5266 45.9063C79.4665 45.5298 79.2873 45.1825 79.0151 44.9155C78.743 44.6485 78.3923 44.4759 78.0147 44.423C76.3053 44.185 74.9483 45.792 74.2054 47.1134C73.4912 48.399 73.115 49.8394 72.8508 51.2893C72.4627 50.1156 71.6604 47.7752 71.5413 46.5277C71.708 44.9849 74.7887 43.7516 76.4815 39.6233C77.7624 36.4949 75.7387 34.3855 74.9649 34.2736C73.2555 34.0355 71.8984 35.6426 71.1556 36.964C70.52 38.1746 70.0819 39.4791 69.8581 40.828C69.8058 40.8232 69.7532 40.8232 69.7009 40.828C69.4629 40.0257 68.3772 38.0782 68.9153 36.5616C69.2486 35.6236 79.9194 26.3241 72.4365 24.7266C70.7485 24.3647 67.7011 30.4024 67.3797 31.8857C66.3821 36.5021 67.4511 26.1146 66.0702 23.2814C65.2512 21.6149 64.0894 20.8649 63.487 21.2577C63.1875 21.4487 62.9309 21.7 62.7338 21.9955C62.5366 22.291 62.4031 22.6244 62.3419 22.9743C62.0157 24.8789 62.2609 26.8455 62.7871 28.6882C63.3631 30.6135 64.1487 32.4698 65.1298 34.2236C64.8584 33.9856 64.5727 33.7475 64.2894 33.538C63.5466 32.989 62.737 32.537 61.88 32.1928C61.0222 31.843 60.1214 31.61 59.2016 31.5C58.373 31.4024 57.2755 31.2786 56.5422 31.7571C54.8399 32.8666 56.8755 35.4021 57.8088 36.3402C59.0279 37.5467 60.5312 38.4269 62.18 38.8996C63.1128 39.1803 64.0777 39.3403 65.0512 39.3757C65.3917 39.3876 65.7536 39.3757 66.1178 39.3757C66.6544 40.8581 67.3072 42.2958 68.0701 43.6755C67.7987 43.4374 67.513 43.1993 67.232 42.9898C66.488 42.4409 65.6777 41.9882 64.8203 41.6422C63.9622 41.294 63.0614 41.0618 62.1419 40.9518C61.3157 40.8542 60.2182 40.7304 59.4825 41.2089C57.7826 42.316 58.1754 43.8707 59.6253 45.7587C61.7443 48.5133 68.8677 48.099 69.1915 48.099C69.7367 49.837 70.5628 52.5821 71.1223 53.8296C70.8509 53.5915 70.5652 53.3535 70.2842 53.1463C69.5413 52.5958 68.7308 52.1429 67.8725 51.7988C67.0145 51.4498 66.1137 51.2168 65.1941 51.106C64.3679 51.0084 63.2704 50.8846 62.5347 51.3631C60.8348 52.4726 62.868 55.0081 63.8037 55.9462C65.0219 57.1544 66.5254 58.0355 68.1748 58.5079C69.1071 58.7877 70.0711 58.9477 71.0437 58.9841C72.096 59.015 73.3412 58.8603 74.2602 59.4817C74.5745 59.6936 75.1149 59.5579 75.134 59.115C75.2185 57.1207 75.6022 55.1505 76.272 53.2701C76.6029 52.331 77.0007 51.4168 77.4624 50.5346C77.9029 49.7013 78.4528 48.9394 78.9195 48.1252C79.2932 47.4633 79.6456 46.68 79.5266 45.9063Z" fill="#24CCEA"/>
<path d="M97.1851 59.9459C97.885 59.584 97.9922 58.365 97.3089 57.9698C98.0231 58.2722 99.3635 58.6531 100.121 58.4793C100.982 58.2817 101.528 57.0508 100.709 56.4842C101.423 56.7485 103.242 56.5818 103.835 55.9009C104.187 55.4938 104.182 54.7319 103.678 54.5462C104.392 54.5224 105.551 54.4748 106.17 54.12C107.018 53.6439 107.361 52.7344 106.625 52.3797C107.601 52.2297 109.137 51.9035 109.075 50.6988C109.042 50.0298 108.534 49.8751 108.265 49.9727C108.774 49.7216 109.217 49.3533 109.556 48.8981C109.895 48.4428 110.121 47.9135 110.215 47.3538C110.26 47.1574 110.247 46.9523 110.177 46.7633C109.939 46.2372 109.156 46.3181 108.649 46.5943C107.949 46.9777 107.376 47.5569 107.001 48.2609C107.277 47.6323 107.542 46.8657 107.151 46.3038C106.701 45.661 105.961 45.742 105.416 46.3038C104.824 46.9116 104.408 47.6687 104.213 48.4942C104.489 47.7609 104.028 46.7443 103.261 46.8847C102.406 47.0395 101.773 48.1775 101.594 49.0275C101.209 48.2513 100.342 47.9323 99.6302 48.4299C98.9183 48.9275 98.3612 50.0369 98.4755 50.8964C98.4921 50.1274 97.4089 49.6632 96.7399 50.0417C95.7209 50.6155 95.1804 51.9464 95.2328 53.4153C94.9328 52.3463 92.6353 52.6035 92.3092 54.4057C92.0602 55.6466 91.8924 56.9024 91.8068 58.165C91.7902 58.2698 95.4971 60.8197 97.1851 59.9459Z" fill="#24CCEA"/>
<path d="M106.142 49.572C100.323 53.7336 93.6782 57.2072 87.2215 60.2642C86.9977 60.369 87.1239 60.7404 87.35 60.6285C93.8425 57.5572 100.514 54.0717 106.363 49.891C106.4 49.8595 106.423 49.8156 106.429 49.7677C106.436 49.7198 106.424 49.6714 106.396 49.6318C106.369 49.5921 106.327 49.5641 106.28 49.553C106.233 49.542 106.184 49.5487 106.142 49.572V49.572Z" fill="#042B5B"/>
<path d="M97.635 56.3325C98.2174 56.3533 98.7942 56.4543 99.3492 56.6325C99.4682 56.6706 99.5039 56.4801 99.3873 56.4444C98.8154 56.2613 98.2208 56.1588 97.6207 56.1396C97.4969 56.1396 97.5112 56.3277 97.635 56.3325Z" fill="#042B5B"/>
<path d="M100.687 54.4698C101.21 54.4904 101.728 54.5702 102.232 54.7078C102.354 54.7388 102.39 54.5507 102.27 54.5174C101.75 54.3776 101.214 54.2977 100.675 54.2793C100.552 54.2793 100.566 54.4674 100.675 54.4721L100.687 54.4698Z" fill="#042B5B"/>
<path d="M97.0733 53.1751L96.4304 54.6893C96.3805 54.8035 96.5543 54.8892 96.6042 54.7726L97.2471 53.2608C97.2971 53.1465 97.1233 53.0608 97.0733 53.1751Z" fill="#042B5B"/>
<path d="M100.175 51.4767C100.027 51.9481 99.8377 52.4055 99.6088 52.8433C99.5493 52.9529 99.7255 53.0362 99.7826 52.9267C100.02 52.4748 100.215 52.0022 100.366 51.5148C100.402 51.3958 100.214 51.3601 100.175 51.4767V51.4767Z" fill="#042B5B"/>
<path d="M103.506 49.4706C103.361 49.9087 103.213 50.3444 103.068 50.78C103.03 50.8991 103.204 50.9824 103.242 50.8657L103.68 49.5563C103.72 49.4396 103.547 49.3539 103.506 49.4706Z" fill="#042B5B"/>
<path d="M105.615 52.0444L104.242 51.8992C104.118 51.8849 104.082 52.0754 104.206 52.0897L105.577 52.2349C105.701 52.2492 105.739 52.0587 105.615 52.0444Z" fill="#042B5B"/>
<path d="M96.7255 9.71526C96.5549 9.67096 96.3908 9.60453 96.2374 9.51766C95.3875 9.0415 95.0756 7.99632 94.9161 7.26065C94.54 5.58418 94.4419 3.85732 94.6256 2.14904C94.6875 1.56812 94.8351 0.839592 95.4208 0.375334C96.2493 -0.257962 97.3469 0.0277353 98.123 0.375334C99.2182 0.863401 100.742 1.67288 101.835 2.75615C103.111 3.99179 103.566 5.32981 103.078 6.4226C102.256 8.2225 99.9158 9.47719 98.1302 9.75574C97.6639 9.83491 97.1865 9.82115 96.7255 9.71526V9.71526Z" fill="#042B5B"/>
<path d="M89.8237 14.3917L89.7118 14.3631C88.9238 14.125 88.4643 13.3298 88.1881 12.7489C87.5657 11.464 87.1418 10.0921 86.931 8.68008C86.8525 8.15868 86.8215 7.5611 87.1691 7.07542C87.5977 6.53973 88.3595 6.36117 89.3499 6.53259C90.5455 6.74064 91.7064 7.1132 92.7997 7.63967C94.1949 8.37534 94.8544 9.30624 94.7044 10.3133C94.5901 11.2133 93.964 12.0775 93.4592 12.6465C92.8637 13.3036 92.1326 13.8235 91.3165 14.1702C90.8713 14.3369 90.3642 14.5155 89.8237 14.3917Z" fill="#042B5B"/>
<path d="M86.2882 21.8934C85.512 21.8934 84.8597 21.3292 84.4192 20.9006C83.4015 19.9031 82.5259 18.7704 81.817 17.5342C81.5789 17.1104 81.3099 16.5485 81.4837 15.9628C81.6718 15.3271 82.2741 14.9057 83.2764 14.7057C84.4594 14.453 85.6707 14.3585 86.8786 14.4248C88.4452 14.5605 89.4094 15.1629 89.6689 16.1604C90.076 17.8103 89.0523 20.0197 87.869 21.1244C87.5095 21.4601 87.0191 21.8387 86.4024 21.8887L86.2882 21.8934Z" fill="#042B5B"/>
<path d="M83.7668 29.8109C83.0835 29.8681 82.4097 29.5157 81.9359 29.2253C80.7159 28.4833 79.61 27.5683 78.6528 26.5087C78.3028 26.1207 77.9504 25.6421 77.9861 25.0541C78.0147 24.5993 78.2909 23.947 79.448 23.4304C80.5512 22.924 81.7169 22.5669 82.9144 22.3685C84.4762 22.1566 85.55 22.528 86.0095 23.4446C86.3547 24.1113 86.4547 25.0112 86.2999 26.1207C86.1863 27.0435 85.8505 27.925 85.3214 28.6896C85.0405 29.111 84.6691 29.5752 84.0834 29.749C83.9802 29.7803 83.8741 29.801 83.7668 29.8109V29.8109Z" fill="#042B5B"/>
<path d="M83.0693 36.8499C82.5742 36.8243 82.0932 36.6762 81.6694 36.4189C80.616 35.8438 79.6453 35.1286 78.7839 34.2929C78.4791 34 78.1268 33.5953 78.141 33.0715C78.1529 32.5049 78.5577 32.0216 79.3434 31.6311C80.2377 31.1584 81.1914 30.8076 82.1789 30.5883C83.8693 30.2764 84.5835 30.8407 84.8835 31.3692C85.2421 32.0621 85.3816 32.8475 85.2835 33.6215C85.1997 34.3882 84.9616 35.13 84.5835 35.8023C84.3626 36.2362 83.996 36.5784 83.5479 36.7689C83.394 36.8224 83.2322 36.8497 83.0693 36.8499V36.8499Z" fill="#042B5B"/>
<path d="M82.7432 42.8702C82.3776 42.8499 82.019 42.761 81.6861 42.6083C80.7448 42.2171 79.8632 41.6954 79.0673 41.0584C78.8979 40.9465 78.7533 40.8011 78.6423 40.6312C78.5314 40.4613 78.4564 40.2704 78.4221 40.0704C78.3792 39.5799 78.6839 39.1299 79.3268 38.7324C80.0415 38.2692 80.8118 37.898 81.6195 37.6277C83.048 37.2253 83.7075 37.6491 84.0003 38.0729C84.7788 39.1061 84.6598 40.8465 84.1003 41.8631C83.9541 42.2448 83.6752 42.561 83.3146 42.7535C83.1348 42.8331 82.9399 42.8729 82.7432 42.8702V42.8702Z" fill="#042B5B"/>
<path d="M82.5551 48.0201C82.2953 48.0114 82.0381 47.9665 81.7908 47.8867C80.9535 47.636 80.153 47.2758 79.41 46.8154C79.2476 46.7351 79.1028 46.6232 78.9843 46.4863C78.8657 46.3493 78.7757 46.19 78.7196 46.0178C78.6505 45.7131 78.7029 45.2464 79.3552 44.7488C80.2314 44.0679 82.3789 42.6061 83.4026 43.7417C83.7701 44.1838 83.9863 44.732 84.0193 45.3059C84.1126 45.8709 84.0635 46.4503 83.8764 46.9915C83.7701 47.3454 83.5436 47.6511 83.236 47.8558C83.028 47.971 82.7927 48.0278 82.5551 48.0201V48.0201Z" fill="#042B5B"/>
<path d="M82.3312 52.8296C82.1685 52.7974 82.0091 52.7504 81.855 52.6891C81.1436 52.4253 80.4703 52.0683 79.8528 51.6273C79.7127 51.5471 79.5908 51.439 79.4945 51.3095C79.3982 51.18 79.3297 51.0321 79.2933 50.8749C79.2528 50.6059 79.3338 50.1988 79.9433 49.7845C80.4636 49.4113 81.0302 49.1072 81.6289 48.8798C82.7074 48.5108 83.2502 48.8155 83.5145 49.1369C84.1692 49.8893 84.1621 51.2225 83.7764 52.0248C83.6528 52.3289 83.4283 52.5811 83.1407 52.7391C82.8877 52.8558 82.6037 52.8876 82.3312 52.8296V52.8296Z" fill="#042B5B"/>
<path d="M82.1169 57.5602C82.0031 57.5454 81.8902 57.5239 81.7788 57.4959C81.0364 57.3208 80.3171 57.0587 79.6361 56.715C79.4861 56.6559 79.3502 56.5661 79.237 56.4513C79.1238 56.3364 79.0359 56.1992 78.979 56.0484C78.8695 55.6722 79.0385 55.277 79.479 54.8794C80.1789 54.2223 81.9074 52.8009 82.9312 53.689C83.6835 54.3389 83.8478 55.6579 83.5692 56.5079C83.4997 56.8388 83.3242 57.138 83.0692 57.3602C82.7907 57.55 82.4483 57.6219 82.1169 57.5602V57.5602Z" fill="#042B5B"/>
<path d="M70.3819 54.8725C70.3259 54.7253 70.2883 54.5718 70.27 54.4154C70.1819 53.5464 70.7699 52.7845 71.2223 52.2846C72.2426 51.144 73.4435 50.1788 74.7768 49.4276C75.2292 49.1705 75.8339 48.8991 76.4744 49.0848C77.3624 49.3562 77.7243 50.3014 77.8743 51.0442C78.0885 52.0941 78.2981 53.625 78.079 54.9678C77.8409 56.5343 77.11 57.5557 76.0649 57.77C74.334 58.1104 72.2103 57.0557 71.089 55.9082C70.7866 55.6135 70.5462 55.2614 70.3819 54.8725V54.8725Z" fill="#042B5B"/>
<path d="M63.0704 51.8936C63.0562 51.8603 63.0443 51.8269 63.0324 51.7912C62.7705 51.0365 63.1419 50.2247 63.4419 49.6795C64.1044 48.4649 64.9464 47.3573 65.9393 46.3939C66.306 46.0392 66.7607 45.6797 67.344 45.6797C68.0083 45.713 68.5773 46.2011 69.0106 47.0891C69.5201 48.1453 69.8807 49.267 70.0819 50.4223C70.2891 51.9365 69.9343 52.9793 69.051 53.4364C68.2797 53.853 67.244 53.8483 66.5107 53.7697C65.6577 53.6717 64.8363 53.389 64.1037 52.9412C63.7085 52.6888 63.2776 52.3888 63.0704 51.8936Z" fill="#042B5B"/>
<path d="M55.1662 53.3389C54.7353 52.7246 54.802 51.8913 54.8924 51.308C55.1057 49.943 55.5063 48.6138 56.0829 47.3583C56.2757 46.9249 56.5733 46.4059 57.1328 46.2083C57.7399 45.9988 58.4113 46.2369 59.1327 46.9226C60.0009 47.7135 60.76 48.6167 61.3897 49.6081C62.1658 50.9199 62.2373 52.0199 61.5968 52.7841C60.5254 54.0364 58.2065 54.4769 56.6685 54.1674C56.1924 54.0745 55.6186 53.9055 55.24 53.4412C55.2123 53.4094 55.1876 53.3752 55.1662 53.3389Z" fill="#042B5B"/>
<path d="M47.7904 55.9838C47.3143 55.5077 47.1524 54.7934 47.0762 54.2696C46.8526 52.9035 46.8286 51.512 47.0048 50.1389C47.0714 49.6366 47.2 49.0747 47.6571 48.7319C48.0095 48.4652 48.6618 48.2557 49.7737 48.7843C50.842 49.276 51.8397 49.9086 52.7401 50.6651C53.8806 51.6817 54.2853 52.7055 53.9044 53.6292C53.633 54.303 53.033 54.9434 52.1188 55.5339C51.3682 56.0321 50.5079 56.3409 49.6118 56.4338C49.0794 56.5424 48.5258 56.458 48.0499 56.1957C47.9564 56.1342 47.8694 56.0632 47.7904 55.9838V55.9838Z" fill="#042B5B"/>
<path d="M42.3693 61.2151C42.0118 60.8904 41.7417 60.4811 41.5836 60.0247C41.1424 58.9454 40.8493 57.8114 40.7122 56.6535C40.6622 56.2464 40.6456 55.7273 40.9765 55.3416C41.3074 54.956 41.9288 54.8107 42.7621 54.9988C43.7234 55.1914 44.6546 55.5117 45.531 55.9511C46.9904 56.7559 47.1809 57.6177 47.0833 58.1962C46.9274 58.9361 46.5505 59.6111 46.0024 60.1318C45.4696 60.6563 44.8363 61.0677 44.1406 61.3413C43.7091 61.5313 43.2248 61.5642 42.7716 61.4341C42.6266 61.3833 42.4907 61.3093 42.3693 61.2151V61.2151Z" fill="#042B5B"/>
<path d="M38.679 65.7048C38.3926 65.445 38.1757 65.1176 38.0481 64.7525C37.6956 63.8859 37.4633 62.9751 37.3577 62.0455C37.3171 61.8647 37.3149 61.6773 37.3514 61.4956C37.388 61.3139 37.4623 61.1419 37.5696 60.9908C37.8553 60.6551 38.3386 60.5623 38.9981 60.7146C39.7709 60.8701 40.5195 61.128 41.2241 61.4813C42.3955 62.1265 42.5502 62.8193 42.4717 63.2835C42.3458 63.8784 42.0429 64.4212 41.6027 64.8406C41.1749 65.263 40.6653 65.5935 40.1052 65.812C39.759 65.9663 39.3694 65.9933 39.0052 65.8881C38.8875 65.8446 38.7774 65.7827 38.679 65.7048Z" fill="#042B5B"/>
<path d="M32.446 58.8366C32.6657 58.5566 32.9522 58.3364 33.2793 58.1962C34.0532 57.8135 34.8759 57.5388 35.7244 57.3796C35.8883 57.3317 36.0603 57.3183 36.2296 57.3405C36.3989 57.3626 36.5617 57.4197 36.7077 57.5082C37.0339 57.7462 37.1505 58.1867 37.0529 58.8081C36.958 59.5283 36.7683 60.2327 36.4887 60.9032C35.9697 62.0222 35.3435 62.2079 34.9102 62.165C34.3552 62.0885 33.8369 61.8443 33.4246 61.4651C33.0093 61.0987 32.6731 60.6515 32.4365 60.1509C32.2735 59.8418 32.2246 59.4853 32.2984 59.1438C32.3311 59.0342 32.3809 58.9305 32.446 58.8366V58.8366Z" fill="#042B5B"/>
<path d="M27.932 55.7939C28.1151 55.4891 28.3712 55.2347 28.6772 55.0535C29.3967 54.5771 30.1776 54.2006 30.9985 53.9345C31.1547 53.865 31.3238 53.8291 31.4949 53.8291C31.6659 53.8291 31.835 53.865 31.9913 53.9345C32.3436 54.1321 32.515 54.5512 32.496 55.1797C32.4961 55.9039 32.3976 56.6248 32.2032 57.3224C31.8294 58.4985 31.2318 58.7509 30.7961 58.7723C30.2362 58.7673 29.6912 58.5912 29.2343 58.2676C28.7752 57.9532 28.3855 57.5481 28.0891 57.0772C27.897 56.7968 27.8071 56.4589 27.8344 56.1201C27.8482 56.0067 27.8813 55.8964 27.932 55.7939V55.7939Z" fill="#042B5B"/>
<path d="M23.83 53.0181C23.9512 52.7135 24.1469 52.4442 24.399 52.2348C24.9824 51.6958 25.6368 51.2392 26.3441 50.8777C26.4759 50.7925 26.624 50.7358 26.779 50.7112C26.934 50.6866 27.0924 50.6946 27.2441 50.7349C27.5964 50.8634 27.8131 51.211 27.8869 51.7919C27.9929 52.4517 28.0097 53.1228 27.9369 53.7871C27.7702 54.9108 27.2679 55.237 26.8727 55.3108C26.3624 55.3844 25.8419 55.3014 25.3799 55.0727C24.9182 54.8573 24.5051 54.5503 24.1657 54.1704C23.9407 53.9408 23.8048 53.6387 23.7824 53.318C23.7821 53.2161 23.7981 53.1149 23.83 53.0181V53.0181Z" fill="#042B5B"/>
<path d="M19.1063 51.2202C19.1781 50.9451 19.3172 50.6923 19.5111 50.4845C19.9546 49.9576 20.468 49.4938 21.0372 49.106C21.1415 49.0185 21.2629 48.9539 21.3937 48.9162C21.5245 48.8784 21.6618 48.8685 21.7966 48.887C22.1133 48.9584 22.3371 49.2417 22.4657 49.7274C22.6276 50.2839 22.7141 50.8596 22.7228 51.4392C22.7037 52.4225 22.3038 52.7582 21.9728 52.8677C21.5428 52.9884 21.0862 52.976 20.6634 52.832C20.243 52.6958 19.8543 52.4764 19.5206 52.1868C19.303 52.0132 19.153 51.7689 19.0968 51.4963C19.0853 51.4043 19.0886 51.3111 19.1063 51.2202V51.2202Z" fill="#042B5B"/>
<path d="M14.4114 51.6965C14.3415 51.4423 14.3366 51.1745 14.3971 50.9179C14.5108 50.2874 14.7103 49.6754 14.99 49.099C15.0335 48.9803 15.1013 48.872 15.189 48.781C15.2767 48.69 15.3825 48.6183 15.4995 48.5705C15.7875 48.4824 16.0994 48.6062 16.428 48.9395C16.8167 49.3121 17.1531 49.7358 17.4279 50.1989C17.866 51.0036 17.6993 51.4584 17.4827 51.6965C17.1928 51.994 16.819 52.1958 16.4113 52.275C16.0083 52.3573 15.5929 52.3573 15.1899 52.275C14.9346 52.235 14.7013 52.107 14.5305 51.9131C14.4789 51.8481 14.4386 51.7749 14.4114 51.6965V51.6965Z" fill="#042B5B"/>
<path d="M28.5486 67.6668C28.4803 67.5172 28.4254 67.3618 28.3843 67.2026C28.1905 66.4926 28.092 65.7601 28.0915 65.0241C28.0763 64.8689 28.093 64.7122 28.1405 64.5636C28.188 64.415 28.2653 64.2776 28.3676 64.1599C28.5581 63.9766 28.9247 63.8099 29.5938 64.0575C30.1821 64.2568 30.7423 64.5313 31.2603 64.8741C32.1579 65.517 32.2246 66.1169 32.1222 66.505C31.8984 67.4573 30.8437 68.193 29.9937 68.3406C29.6827 68.4167 29.355 68.384 29.0652 68.2477C28.8361 68.1134 28.6552 67.9101 28.5486 67.6668V67.6668Z" fill="#042B5B"/>
<path d="M38.5481 92.785C38.0076 93.2968 37.391 93.8039 36.6244 93.9563C35.6364 94.1539 34.6459 93.7182 33.8436 93.1849C32.5461 92.3374 31.3937 91.0089 31.6866 89.5756C31.8318 88.8614 32.3151 88.2448 32.8175 87.671C34.0892 86.2269 35.5406 84.9515 37.1363 83.876C37.6648 83.5188 38.2433 83.1617 38.8981 83.1165C39.9242 83.0332 40.8194 83.695 41.4336 84.4164C41.9479 85.0211 42.7597 85.7806 43.0193 86.5115C43.2788 87.2424 42.6645 87.9091 42.2169 88.5114C41.1224 90.0414 39.8947 91.4715 38.5481 92.785V92.785Z" fill="#042B5B"/>
<path d="M97.0422 85.1214C97.4898 85.7166 97.9278 86.3856 97.9945 87.1617C98.0826 88.1664 97.535 89.1021 96.9231 89.8425C95.9351 91.0329 94.4899 92.0376 93.0972 91.59C92.4091 91.3663 91.8425 90.8187 91.3306 90.2568C90.0349 88.8339 88.9275 87.2504 88.0356 85.5452C87.738 84.9833 87.4546 84.3691 87.4737 83.7119C87.5023 82.6834 88.2594 81.8668 89.0426 81.3311C89.6997 80.8883 90.5449 80.1645 91.302 79.986C92.0591 79.8074 92.6496 80.4931 93.2067 81.0026C94.6024 82.2615 95.8857 83.6397 97.0422 85.1214V85.1214Z" fill="#042B5B"/>
<path d="M47.469 97.5263C47.1285 98.1905 46.7166 98.8738 46.0405 99.2738C45.1739 99.7904 44.093 99.7047 43.1597 99.4762C41.6527 99.1095 40.1242 98.2429 39.9218 96.7954C39.8218 96.0811 40.067 95.3312 40.3504 94.6241C41.0677 92.839 42.0093 91.1526 43.1526 89.6053C43.5311 89.0911 43.962 88.5697 44.5596 88.3006C45.4977 87.8792 46.5643 88.203 47.3833 88.6768C48.0713 89.0744 49.0903 89.5196 49.5808 90.122C50.0712 90.7243 49.7117 91.5505 49.4903 92.2647C48.9725 94.0746 48.2961 95.8353 47.469 97.5263V97.5263Z" fill="#042B5B"/>
<path d="M90.1141 92.9987C90.3974 93.6892 90.6498 94.4463 90.5189 95.2153C90.3474 96.2081 89.5665 96.9747 88.7999 97.5366C87.5428 98.4413 85.8906 99.0412 84.6573 98.2508C84.0478 97.8604 83.6383 97.189 83.286 96.5128C82.3943 94.8086 81.7246 92.9971 81.2932 91.1227C81.148 90.5013 81.0313 89.8346 81.2146 89.218C81.5051 88.23 82.4431 87.6324 83.3383 87.3134C84.0859 87.0491 85.0858 86.5658 85.8644 86.5825C86.6429 86.5991 87.0405 87.4181 87.4405 88.049C88.474 89.618 89.3687 91.2742 90.1141 92.9987Z" fill="#042B5B"/>
<path d="M117.591 11.7187C115.986 6.62135 109.344 3.19536 100.749 5.93568C83.6882 11.3758 83.6882 34.0959 83.2192 53.7662C83.0716 59.9992 79.7932 61.9681 76.6982 58.5802C69.7462 50.9616 55.7851 43.9906 43.9834 61.0634C41.3812 64.8298 39.7646 67.8011 37.4576 64.9703C23.3823 47.707 14.5851 50.8592 12.9352 53.0186C11.8067 54.4971 17.3445 55.4518 21.4347 59.304C29.07 66.4774 28.0725 70.9771 33.3817 78.9457C40.9288 90.2855 59.3992 96.3518 74.0221 92.3997C83.7978 89.757 89.7046 84.6644 92.0806 79.6885C101.794 59.3445 87.9785 25.2679 99.892 24.0679C114.696 22.5776 118.881 15.8113 117.591 11.7187Z" fill="#2BC1B2"/>
<path d="M102.504 16.0037C101.921 16.1989 101.34 16.1442 100.599 15.8632C100.54 15.8408 100.491 15.7956 100.465 15.7376C100.439 15.6795 100.436 15.6134 100.459 15.5537C100.481 15.494 100.526 15.4457 100.585 15.4194C100.643 15.393 100.709 15.3908 100.768 15.4132C101.785 15.7942 102.361 15.7132 103.225 15.0537C103.25 15.0341 103.279 15.0197 103.31 15.0113C103.34 15.003 103.372 15.0008 103.404 15.005C103.435 15.0092 103.466 15.0197 103.493 15.0359C103.521 15.052 103.544 15.0735 103.563 15.099C103.583 15.1241 103.597 15.1529 103.605 15.1837C103.614 15.2145 103.615 15.2465 103.611 15.2781C103.607 15.3096 103.596 15.3399 103.58 15.3672C103.563 15.3945 103.541 15.4183 103.516 15.437C103.211 15.6795 102.87 15.8709 102.504 16.0037V16.0037Z" fill="#042B5B"/>
<path d="M101.366 21.5074C101.843 21.4461 102.296 21.2597 102.678 20.967C102.866 20.8189 103.021 20.6318 103.131 20.4186C103.24 20.2053 103.303 19.9709 103.313 19.7313C103.328 17.7434 99.9255 16.8744 98.7137 18.2243C97.0686 20.0504 99.6017 21.7812 101.366 21.5074Z" fill="#FF987E"/>
<path d="M113.987 13.5246C114.086 13.5117 114.181 13.4722 114.26 13.4103C114.3 13.3801 114.333 13.3414 114.356 13.2969C114.379 13.2524 114.392 13.2033 114.394 13.1532C114.394 12.7365 113.679 12.5556 113.441 12.8365C113.087 13.2175 113.617 13.5817 113.987 13.5246Z" fill="#042B5B"/>
<path d="M115.151 12.1935C115.251 12.1807 115.345 12.1412 115.424 12.0793C115.465 12.0491 115.497 12.0103 115.52 11.9658C115.543 11.9213 115.556 11.8722 115.558 11.8221C115.558 11.4055 114.844 11.2245 114.605 11.5055C114.258 11.8793 114.782 12.2435 115.151 12.1935Z" fill="#042B5B"/>
<path d="M106.006 12.2865C105.882 12.3289 105.754 12.3607 105.625 12.3818C104.794 12.4971 103.95 12.2976 103.259 11.8223C103.232 11.8051 103.209 11.7829 103.191 11.7569C103.174 11.7309 103.161 11.7016 103.155 11.6708C103.148 11.6399 103.148 11.6081 103.153 11.5771C103.159 11.5461 103.171 11.5166 103.188 11.4902C103.205 11.4637 103.228 11.441 103.254 11.4231C103.28 11.4053 103.309 11.3928 103.34 11.3863C103.371 11.3797 103.402 11.3794 103.433 11.3851C103.464 11.3909 103.494 11.4027 103.52 11.4199C104.112 11.825 104.833 11.9987 105.544 11.908C105.883 11.8582 106.202 11.7187 106.469 11.504C106.735 11.2892 106.94 11.007 107.061 10.6866C107.158 10.3758 107.146 10.0411 107.027 9.73804C106.908 9.43495 106.689 9.18163 106.406 9.02007C106.377 9.00663 106.352 8.98768 106.33 8.96431C106.309 8.94094 106.293 8.91361 106.282 8.88388C106.271 8.85414 106.266 8.82258 106.268 8.79101C106.269 8.75943 106.277 8.72846 106.29 8.69985C106.304 8.67125 106.323 8.64556 106.346 8.62428C106.37 8.60299 106.397 8.58652 106.427 8.5758C106.456 8.56508 106.488 8.56031 106.52 8.56178C106.551 8.56326 106.582 8.57094 106.611 8.58438C107.001 8.79578 107.306 9.13708 107.471 9.54922C107.637 9.96137 107.653 10.4184 107.518 10.8414C107.394 11.1822 107.193 11.4898 106.931 11.7404C106.668 11.991 106.352 12.1779 106.006 12.2865Z" fill="#042B5B"/>
<path d="M86.7095 34.2569C86.7273 34.5351 86.8498 34.7963 87.0524 34.9878C87.419 35.2687 87.9737 35.0592 88.2832 34.7164C88.6517 34.2749 88.8532 33.7178 88.8523 33.1427C88.8808 32.3213 88.8189 30.7214 87.638 31.3713C86.6905 31.8927 86.5643 33.3141 86.7095 34.2569Z" fill="white"/>
<path d="M88.6094 27.1619C88.5179 27.5623 88.4962 27.9755 88.5451 28.3833C88.5642 28.6 88.6308 28.8595 88.838 28.9214C89.0451 28.9833 89.2379 28.8071 89.3641 28.6357C89.7427 28.1238 90.2522 27.0048 89.8522 26.3882C89.3594 25.6239 88.7165 26.731 88.6094 27.1619Z" fill="white"/>
<path d="M88.6451 39.4319C88.6761 39.5959 88.7428 39.7511 88.8403 39.8866C88.8893 39.9543 88.9564 40.007 89.0338 40.0385C89.1112 40.0701 89.1959 40.0793 89.2784 40.0652C89.3596 40.033 89.4335 39.9848 89.4957 39.9235C89.5579 39.8621 89.607 39.7889 89.6402 39.7081C90.0935 38.87 90.2678 37.9093 90.1378 36.9654C90.0926 36.6249 89.9688 36.2511 89.595 36.1702C89.4677 36.1412 89.3356 36.1412 89.2083 36.17C89.081 36.1989 88.9617 36.2559 88.8593 36.3368C88.476 36.6868 88.5213 37.4582 88.4998 37.9272C88.4752 38.4332 88.5242 38.94 88.6451 39.4319Z" fill="white"/>
<path d="M86.6666 38.8589C86.731 38.9121 86.8126 38.9397 86.896 38.9367C86.9794 38.9336 87.0587 38.9 87.119 38.8422C87.2367 38.7217 87.3097 38.5647 87.3261 38.397C87.3642 38.159 87.3118 36.8971 86.85 37.4042C86.6143 37.6685 86.4024 38.5875 86.6666 38.8589Z" fill="white"/>
<path d="M86.9857 43.6819C86.9993 43.7603 87.0292 43.8349 87.0735 43.9009C87.1178 43.967 87.1755 44.0229 87.2428 44.0652C87.3444 44.0946 87.4525 44.0929 87.5531 44.0602C87.6537 44.0275 87.7422 43.9654 87.8071 43.8819C88.1666 43.5033 88.4952 42.4534 88.138 41.9939C87.7809 41.5344 87.2286 42.1296 87.0714 42.4582C86.902 42.8438 86.8717 43.2764 86.9857 43.6819V43.6819Z" fill="white"/>
<path d="M89.2594 24.076C89.4245 24.1929 89.6245 24.2498 89.8263 24.2372C90.0282 24.2247 90.2196 24.1434 90.3689 24.007C90.6616 23.7257 90.8617 23.362 90.9427 22.9642C91.1355 22.2737 91.0522 21.2976 90.1261 21.269C89.3832 21.2429 89.0952 22.2666 89.0071 22.8404C88.9428 23.2451 88.919 23.7808 89.2594 24.076Z" fill="white"/>
<path d="M91.8045 19.2453C91.8101 19.2973 91.828 19.3472 91.8565 19.3911C91.885 19.4349 91.9235 19.4714 91.9688 19.4977C92.021 19.5112 92.0756 19.5131 92.1287 19.5032C92.1817 19.4933 92.232 19.4719 92.2759 19.4405C92.4388 19.3518 92.59 19.243 92.7259 19.1167C92.8701 18.9947 92.9787 18.8359 93.0401 18.6572C93.0685 18.5678 93.0712 18.4723 93.0481 18.3814C93.025 18.2905 92.9768 18.2079 92.9092 18.143C92.6711 17.9382 92.2949 18.143 92.1092 18.3263C91.9859 18.4419 91.8933 18.5866 91.8401 18.7471C91.7869 18.9076 91.7747 19.0788 91.8045 19.2453V19.2453Z" fill="white"/>
<path d="M90.7094 26.4791C90.7015 26.5382 90.7101 26.5983 90.734 26.6528C90.7579 26.7074 90.7963 26.7544 90.8451 26.7886C90.9712 26.8553 91.1236 26.7648 91.226 26.6648C91.353 26.5402 91.4584 26.3954 91.5379 26.2363C91.5703 26.1859 91.5903 26.1285 91.5961 26.0689C91.6019 26.0093 91.5934 25.9491 91.5712 25.8935C91.2736 25.3792 90.7213 26.1911 90.7094 26.4791Z" fill="white"/>
<path d="M55.64 59.833C56.171 59.3009 56.8721 58.9722 57.6208 58.9045C58.6898 58.7711 60.7825 58.6664 60.073 60.2806C59.5064 61.5733 57.6684 61.9043 56.4232 61.8281C56.0594 61.8388 55.7051 61.7102 55.4328 61.4686C55.021 61.0234 55.2305 60.2853 55.64 59.833Z" fill="white"/>
<path d="M63.3086 60.8817C63.316 60.7085 63.3602 60.539 63.4382 60.3842C63.5162 60.2294 63.6262 60.093 63.7609 59.9841C64.0328 59.7676 64.3477 59.6118 64.6847 59.527C65.3684 59.3318 66.086 59.2847 66.7893 59.3889C67.3113 59.4403 67.7984 59.6738 68.1655 60.0484C68.3539 60.2854 68.4726 60.5701 68.5083 60.8708C68.5441 61.1714 68.4954 61.4761 68.3678 61.7507C67.5631 63.5268 65.2513 63.0244 64.0157 62.0602C63.6419 61.7602 63.3086 61.3554 63.3086 60.8817Z" fill="white"/>
<path d="M50.5997 62.4074C50.6617 62.504 50.7002 62.6137 50.7122 62.7278C50.7242 62.8419 50.7093 62.9572 50.6688 63.0645C50.5853 63.2781 50.457 63.4713 50.2926 63.6312C49.6712 64.2978 48.1094 65.0596 47.5452 63.9002C46.9285 62.6288 48.7808 62.117 49.6593 62.0979C50.0022 62.0884 50.3997 62.1289 50.5997 62.4074Z" fill="white"/>
<path d="M66.9917 55.393C67.0069 55.5069 66.995 55.6227 66.957 55.7311C66.9189 55.8396 66.8557 55.9374 66.7726 56.0168C66.6049 56.1725 66.4073 56.2924 66.1917 56.3691C65.3441 56.7048 63.6038 56.7334 63.5919 55.4335C63.5799 54.0216 65.4727 54.3502 66.275 54.7192C66.5893 54.8502 66.9321 55.0478 66.9917 55.393Z" fill="white"/>
<path d="M70.3034 59.134C70.3034 57.8745 71.9961 58.1817 72.7104 58.5174C72.9889 58.6459 73.2937 58.834 73.3437 59.1364C73.3552 59.2382 73.3429 59.3413 73.3078 59.4376C73.2726 59.5338 73.2157 59.6206 73.1413 59.6911C72.9907 59.8298 72.8121 59.9346 72.6175 59.9982C71.8556 60.2863 70.2986 60.2863 70.3034 59.134Z" fill="white"/>
<path d="M54.1638 56.7748C54.2274 56.8553 54.2713 56.9495 54.292 57.05C54.3127 57.1504 54.3096 57.2543 54.2829 57.3534C54.2285 57.5506 54.1327 57.7341 54.0019 57.8914C53.5091 58.5414 52.1925 59.3675 51.583 58.3676C50.9188 57.2962 52.5187 56.6701 53.2972 56.5725C53.6043 56.5463 53.9591 56.5439 54.1638 56.7748Z" fill="white"/>
<path d="M57.7945 54.8253C57.902 54.6504 58.0596 54.5119 58.2468 54.4277C58.7282 54.1676 59.2471 53.9837 59.7848 53.8825C60.1872 53.8063 60.6514 53.7968 60.9419 54.0849C61.2681 54.4087 61.1966 54.9967 60.88 55.33C60.7098 55.4857 60.5105 55.6061 60.2935 55.6841C60.0765 55.7622 59.8461 55.7964 59.6158 55.7848C59.1468 55.7872 57.3111 55.7895 57.7945 54.8253Z" fill="white"/>
<path d="M67.1179 87.2198C63.925 87.1963 60.7424 87.586 57.6495 88.3792C55.3829 88.9387 52.964 89.7601 51.5308 91.5504C58.7851 93.8551 66.8632 94.3312 74.0223 92.398C75.776 91.9293 77.4964 91.3439 79.172 90.6457C75.6889 88.3316 71.4272 87.2888 67.1179 87.2198Z" fill="#F56049"/>
<path d="M106.608 17.8916H106.456L106.306 17.913C106.261 17.9194 106.216 17.9233 106.17 17.9249C105.675 18.8225 104.846 21.6961 104.808 23.2365C104.756 25.1769 105.249 29.2386 107.039 29.1386C108.444 29.0576 108.944 26.1768 108.639 23.3818C108.494 22.0485 107.651 19.4463 106.608 17.8916Z" fill="#A6CE28"/>
<path d="M111.284 18.5051C110.336 18.1592 109.348 17.9306 108.344 17.8242C108.275 17.8561 108.204 17.8839 108.132 17.9075C107.696 18.0232 107.245 18.0754 106.794 18.0623C106.623 18.0623 106.447 18.0623 106.275 18.0623C106.225 18.0623 106.175 18.0623 106.125 18.0837C106.098 18.086 106.071 18.086 106.044 18.0837C106.52 18.8313 108.389 20.7026 109.565 21.3812C111.034 22.2335 114.363 23.562 115.041 22.1406C115.565 21.0359 113.56 19.4479 111.284 18.5051Z" fill="#A6CE28"/>
<path d="M112.894 17.026C110.363 17.8736 107.37 18.4545 105.089 18.1736C103.285 17.9355 102.178 17.1879 101.799 15.9237C101.79 15.8935 101.787 15.8619 101.79 15.8305C101.793 15.7992 101.803 15.7688 101.818 15.7411C101.833 15.7134 101.853 15.689 101.878 15.6692C101.902 15.6495 101.931 15.6348 101.961 15.6261C101.991 15.6169 102.022 15.6138 102.054 15.6169C102.085 15.6199 102.115 15.6292 102.143 15.644C102.171 15.6588 102.195 15.6789 102.215 15.7033C102.235 15.7276 102.249 15.7556 102.258 15.7856C102.578 16.8498 103.551 17.4927 105.151 17.6903C109.453 18.2402 116.689 15.4475 117.512 14.0905C117.529 14.0636 117.55 14.0402 117.576 14.0216C117.601 14.0031 117.63 13.9897 117.661 13.9823C117.691 13.9749 117.723 13.9736 117.754 13.9785C117.785 13.9834 117.815 13.9943 117.842 14.0107C117.869 14.0271 117.892 14.0487 117.911 14.0741C117.929 14.0996 117.943 14.1285 117.95 14.1591C117.958 14.1897 117.959 14.2215 117.954 14.2526C117.949 14.2837 117.938 14.3136 117.922 14.3405C117.477 15.0809 115.415 16.1808 112.894 17.026Z" fill="#042B5B"/>
</svg>
