<svg width="349" height="250" viewBox="0 0 349 250" fill="none" xmlns="http://www.w3.org/2000/svg">
<path d="M149.31 164.748C148.517 164.748 147.803 164.612 147.168 164.34C146.533 164.057 146.035 163.66 145.672 163.15C145.309 162.64 145.128 162.045 145.128 161.365H147.202C147.247 161.875 147.446 162.294 147.797 162.623C148.16 162.952 148.664 163.116 149.31 163.116C149.979 163.116 150.5 162.957 150.874 162.64C151.248 162.311 151.435 161.892 151.435 161.382C151.435 160.985 151.316 160.662 151.078 160.413C150.851 160.164 150.562 159.971 150.211 159.835C149.871 159.699 149.395 159.552 148.783 159.393C148.012 159.189 147.383 158.985 146.896 158.781C146.42 158.566 146.012 158.237 145.672 157.795C145.332 157.353 145.162 156.764 145.162 156.027C145.162 155.347 145.332 154.752 145.672 154.242C146.012 153.732 146.488 153.341 147.1 153.069C147.712 152.797 148.42 152.661 149.225 152.661C150.37 152.661 151.305 152.95 152.03 153.528C152.767 154.095 153.175 154.877 153.254 155.874H151.112C151.078 155.443 150.874 155.075 150.5 154.769C150.126 154.463 149.633 154.31 149.021 154.31C148.466 154.31 148.012 154.452 147.661 154.735C147.31 155.018 147.134 155.426 147.134 155.959C147.134 156.322 147.242 156.622 147.457 156.86C147.684 157.087 147.967 157.268 148.307 157.404C148.647 157.54 149.112 157.687 149.701 157.846C150.483 158.061 151.118 158.277 151.605 158.492C152.104 158.707 152.523 159.042 152.863 159.495C153.214 159.937 153.39 160.532 153.39 161.28C153.39 161.881 153.226 162.447 152.897 162.98C152.58 163.513 152.109 163.943 151.486 164.272C150.874 164.589 150.149 164.748 149.31 164.748Z" fill="white"/>
<path d="M157.938 156.843V162.028C157.938 162.379 158.017 162.634 158.176 162.793C158.346 162.94 158.629 163.014 159.026 163.014H160.216V164.629H158.686C157.813 164.629 157.144 164.425 156.68 164.017C156.215 163.609 155.983 162.946 155.983 162.028V156.843H154.878V155.262H155.983V152.933H157.938V155.262H160.216V156.843H157.938Z" fill="white"/>
<path d="M161.356 159.903C161.356 158.962 161.549 158.129 161.934 157.404C162.331 156.679 162.863 156.118 163.532 155.721C164.212 155.313 164.96 155.109 165.776 155.109C166.513 155.109 167.153 155.256 167.697 155.551C168.252 155.834 168.694 156.191 169.023 156.622V155.262H170.978V164.629H169.023V163.235C168.694 163.677 168.247 164.045 167.68 164.34C167.113 164.635 166.467 164.782 165.742 164.782C164.937 164.782 164.201 164.578 163.532 164.17C162.863 163.751 162.331 163.173 161.934 162.436C161.549 161.688 161.356 160.844 161.356 159.903ZM169.023 159.937C169.023 159.291 168.887 158.73 168.615 158.254C168.354 157.778 168.009 157.415 167.578 157.166C167.147 156.917 166.683 156.792 166.184 156.792C165.685 156.792 165.221 156.917 164.79 157.166C164.359 157.404 164.008 157.761 163.736 158.237C163.475 158.702 163.345 159.257 163.345 159.903C163.345 160.549 163.475 161.116 163.736 161.603C164.008 162.09 164.359 162.464 164.79 162.725C165.232 162.974 165.697 163.099 166.184 163.099C166.683 163.099 167.147 162.974 167.578 162.725C168.009 162.476 168.354 162.113 168.615 161.637C168.887 161.15 169.023 160.583 169.023 159.937Z" fill="white"/>
<path d="M175.461 156.622C175.745 156.146 176.119 155.778 176.583 155.517C177.059 155.245 177.62 155.109 178.266 155.109V157.115H177.773C177.014 157.115 176.436 157.308 176.039 157.693C175.654 158.078 175.461 158.747 175.461 159.699V164.629H173.523V155.262H175.461V156.622Z" fill="white"/>
<path d="M182.309 156.843V162.028C182.309 162.379 182.388 162.634 182.547 162.793C182.717 162.94 183 163.014 183.397 163.014H184.587V164.629H183.057C182.184 164.629 181.516 164.425 181.051 164.017C180.586 163.609 180.354 162.946 180.354 162.028V156.843H179.249V155.262H180.354V152.933H182.309V155.262H184.587V156.843H182.309Z" fill="white"/>
<path d="M189.773 164.782C189.036 164.782 188.373 164.652 187.784 164.391C187.206 164.119 186.747 163.756 186.407 163.303C186.067 162.838 185.886 162.323 185.863 161.756H187.869C187.903 162.153 188.09 162.487 188.43 162.759C188.781 163.02 189.218 163.15 189.739 163.15C190.283 163.15 190.702 163.048 190.997 162.844C191.303 162.629 191.456 162.357 191.456 162.028C191.456 161.677 191.286 161.416 190.946 161.246C190.617 161.076 190.09 160.889 189.365 160.685C188.662 160.492 188.09 160.305 187.648 160.124C187.206 159.943 186.821 159.665 186.492 159.291C186.175 158.917 186.016 158.424 186.016 157.812C186.016 157.313 186.163 156.86 186.458 156.452C186.753 156.033 187.172 155.704 187.716 155.466C188.271 155.228 188.906 155.109 189.62 155.109C190.685 155.109 191.541 155.381 192.187 155.925C192.844 156.458 193.196 157.189 193.241 158.118H191.303C191.269 157.699 191.099 157.364 190.793 157.115C190.487 156.866 190.073 156.741 189.552 156.741C189.042 156.741 188.651 156.837 188.379 157.03C188.107 157.223 187.971 157.478 187.971 157.795C187.971 158.044 188.062 158.254 188.243 158.424C188.424 158.594 188.645 158.73 188.906 158.832C189.167 158.923 189.552 159.042 190.062 159.189C190.742 159.37 191.297 159.557 191.728 159.75C192.17 159.931 192.55 160.203 192.867 160.566C193.184 160.929 193.349 161.41 193.36 162.011C193.36 162.544 193.213 163.02 192.918 163.439C192.623 163.858 192.204 164.187 191.66 164.425C191.127 164.663 190.498 164.782 189.773 164.782Z" fill="white"/>
<path d="M199.224 159.903C199.224 158.962 199.417 158.129 199.802 157.404C200.199 156.679 200.732 156.118 201.4 155.721C202.08 155.313 202.828 155.109 203.644 155.109C204.381 155.109 205.021 155.256 205.565 155.551C206.121 155.834 206.563 156.191 206.891 156.622V155.262H208.846V164.629H206.891V163.235C206.563 163.677 206.115 164.045 205.548 164.34C204.982 164.635 204.336 164.782 203.61 164.782C202.806 164.782 202.069 164.578 201.4 164.17C200.732 163.751 200.199 163.173 199.802 162.436C199.417 161.688 199.224 160.844 199.224 159.903ZM206.891 159.937C206.891 159.291 206.755 158.73 206.483 158.254C206.223 157.778 205.877 157.415 205.446 157.166C205.016 156.917 204.551 156.792 204.052 156.792C203.554 156.792 203.089 156.917 202.658 157.166C202.228 157.404 201.876 157.761 201.604 158.237C201.344 158.702 201.213 159.257 201.213 159.903C201.213 160.549 201.344 161.116 201.604 161.603C201.876 162.09 202.228 162.464 202.658 162.725C203.1 162.974 203.565 163.099 204.052 163.099C204.551 163.099 205.016 162.974 205.446 162.725C205.877 162.476 206.223 162.113 206.483 161.637C206.755 161.15 206.891 160.583 206.891 159.937Z" fill="white"/>
<path d="M213.653 156.843V162.028C213.653 162.379 213.732 162.634 213.891 162.793C214.061 162.94 214.344 163.014 214.741 163.014H215.931V164.629H214.401C213.528 164.629 212.859 164.425 212.395 164.017C211.93 163.609 211.698 162.946 211.698 162.028V156.843H210.593V155.262H211.698V152.933H213.653V155.262H215.931V156.843H213.653Z" fill="white"/>
<path d="M147.547 180.004V178.236H151.083V190.629H149.128V180.004H147.547Z" fill="white"/>
<path d="M153.49 180.004V178.236H157.026V190.629H155.071V180.004H153.49Z" fill="white"/>
<path d="M160.725 190.748C160.374 190.748 160.079 190.629 159.841 190.391C159.603 190.153 159.484 189.858 159.484 189.507C159.484 189.156 159.603 188.861 159.841 188.623C160.079 188.385 160.374 188.266 160.725 188.266C161.065 188.266 161.354 188.385 161.592 188.623C161.83 188.861 161.949 189.156 161.949 189.507C161.949 189.858 161.83 190.153 161.592 190.391C161.354 190.629 161.065 190.748 160.725 190.748ZM160.725 183.608C160.374 183.608 160.079 183.489 159.841 183.251C159.603 183.013 159.484 182.718 159.484 182.367C159.484 182.016 159.603 181.721 159.841 181.483C160.079 181.245 160.374 181.126 160.725 181.126C161.065 181.126 161.354 181.245 161.592 181.483C161.83 181.721 161.949 182.016 161.949 182.367C161.949 182.718 161.83 183.013 161.592 183.251C161.354 183.489 161.065 183.608 160.725 183.608Z" fill="white"/>
<path d="M163.855 184.271C163.855 182.31 164.184 180.78 164.841 179.681C165.51 178.57 166.655 178.015 168.275 178.015C169.896 178.015 171.035 178.57 171.692 179.681C172.361 180.78 172.695 182.31 172.695 184.271C172.695 186.254 172.361 187.807 171.692 188.929C171.035 190.04 169.896 190.595 168.275 190.595C166.655 190.595 165.51 190.04 164.841 188.929C164.184 187.807 163.855 186.254 163.855 184.271ZM170.791 184.271C170.791 183.353 170.729 182.577 170.604 181.942C170.491 181.307 170.253 180.792 169.89 180.395C169.528 179.987 168.989 179.783 168.275 179.783C167.561 179.783 167.023 179.987 166.66 180.395C166.298 180.792 166.054 181.307 165.929 181.942C165.816 182.577 165.759 183.353 165.759 184.271C165.759 185.223 165.816 186.022 165.929 186.668C166.043 187.314 166.281 187.835 166.643 188.232C167.017 188.629 167.561 188.827 168.275 188.827C168.989 188.827 169.528 188.629 169.89 188.232C170.264 187.835 170.508 187.314 170.621 186.668C170.735 186.022 170.791 185.223 170.791 184.271Z" fill="white"/>
<path d="M174.746 184.271C174.746 182.31 175.075 180.78 175.732 179.681C176.401 178.57 177.545 178.015 179.166 178.015C180.787 178.015 181.926 178.57 182.583 179.681C183.252 180.78 183.586 182.31 183.586 184.271C183.586 186.254 183.252 187.807 182.583 188.929C181.926 190.04 180.787 190.595 179.166 190.595C177.545 190.595 176.401 190.04 175.732 188.929C175.075 187.807 174.746 186.254 174.746 184.271ZM181.682 184.271C181.682 183.353 181.62 182.577 181.495 181.942C181.382 181.307 181.144 180.792 180.781 180.395C180.418 179.987 179.88 179.783 179.166 179.783C178.452 179.783 177.914 179.987 177.551 180.395C177.188 180.792 176.945 181.307 176.82 181.942C176.707 182.577 176.65 183.353 176.65 184.271C176.65 185.223 176.707 186.022 176.82 186.668C176.933 187.314 177.171 187.835 177.534 188.232C177.908 188.629 178.452 188.827 179.166 188.827C179.88 188.827 180.418 188.629 180.781 188.232C181.155 187.835 181.399 187.314 181.512 186.668C181.625 186.022 181.682 185.223 181.682 184.271Z" fill="white"/>
<path d="M189.662 185.903C189.662 184.962 189.854 184.129 190.24 183.404C190.636 182.679 191.169 182.118 191.838 181.721C192.518 181.313 193.266 181.109 194.082 181.109C194.818 181.109 195.459 181.256 196.003 181.551C196.558 181.834 197 182.191 197.329 182.622V181.262H199.284V190.629H197.329V189.235C197 189.677 196.552 190.045 195.986 190.34C195.419 190.635 194.773 190.782 194.048 190.782C193.243 190.782 192.506 190.578 191.838 190.17C191.169 189.751 190.636 189.173 190.24 188.436C189.854 187.688 189.662 186.844 189.662 185.903ZM197.329 185.937C197.329 185.291 197.193 184.73 196.921 184.254C196.66 183.778 196.314 183.415 195.884 183.166C195.453 182.917 194.988 182.792 194.49 182.792C193.991 182.792 193.526 182.917 193.096 183.166C192.665 183.404 192.314 183.761 192.042 184.237C191.781 184.702 191.651 185.257 191.651 185.903C191.651 186.549 191.781 187.116 192.042 187.603C192.314 188.09 192.665 188.464 193.096 188.725C193.538 188.974 194.002 189.099 194.49 189.099C194.988 189.099 195.453 188.974 195.884 188.725C196.314 188.476 196.66 188.113 196.921 187.637C197.193 187.15 197.329 186.583 197.329 185.937Z" fill="white"/>
<path d="M213.168 181.109C213.905 181.109 214.562 181.262 215.14 181.568C215.729 181.874 216.188 182.327 216.517 182.928C216.857 183.529 217.027 184.254 217.027 185.104V190.629H215.106V185.393C215.106 184.554 214.896 183.914 214.477 183.472C214.058 183.019 213.485 182.792 212.76 182.792C212.035 182.792 211.457 183.019 211.026 183.472C210.607 183.914 210.397 184.554 210.397 185.393V190.629H208.476V185.393C208.476 184.554 208.266 183.914 207.847 183.472C207.428 183.019 206.855 182.792 206.13 182.792C205.405 182.792 204.827 183.019 204.396 183.472C203.977 183.914 203.767 184.554 203.767 185.393V190.629H201.829V181.262H203.767V182.333C204.084 181.948 204.487 181.647 204.974 181.432C205.461 181.217 205.983 181.109 206.538 181.109C207.286 181.109 207.955 181.268 208.544 181.585C209.133 181.902 209.587 182.361 209.904 182.962C210.187 182.395 210.629 181.948 211.23 181.619C211.831 181.279 212.477 181.109 213.168 181.109Z" fill="white"/>
<path fill-rule="evenodd" clip-rule="evenodd" d="M55 221.629C55 221.077 55.4477 220.629 56 220.629H326C326.552 220.629 327 221.077 327 221.629C327 222.181 326.552 222.629 326 222.629H56C55.4477 222.629 55 222.181 55 221.629Z" fill="#343434"/>
<path d="M57.6276 119.39L57.3528 117.587H47.2455V124.281C50.5926 122.451 54.1321 120.972 57.6276 119.39Z" fill="#B8A49B"/>
<path d="M47.2455 128.914V132.91C48.0369 132.245 48.8504 131.618 49.6748 131.008L47.2455 128.914Z" fill="#B8A49B"/>
<path d="M60.5735 138.945L58.7708 127.035C56.2133 128.383 53.7409 129.886 51.3676 131.536C54.3574 134.109 57.3748 136.648 60.5735 138.945Z" fill="#B8A49B"/>
<path d="M61.5793 145.584C61.5229 145.624 61.4558 145.645 61.387 145.645C57.133 145.59 53.2747 144.359 49.1966 143.314C48.5535 143.149 47.905 143.007 47.2455 142.869V146.37C49.0317 147.469 50.9004 148.415 52.7416 149.355C56.3164 151.115 59.7571 153.136 63.0358 155.4L61.5793 145.584Z" fill="#B8A49B"/>
<path d="M49.3835 142.617C53.3956 143.65 57.1935 144.87 61.387 144.925C61.4197 144.919 61.4532 144.919 61.4859 144.925L60.7219 139.885C57.2539 137.439 54.0002 134.702 50.7795 131.927C49.5593 132.812 48.3777 133.746 47.2455 134.746V142.117C47.9655 142.298 48.6855 142.452 49.3835 142.617Z" fill="#B8A49B"/>
<path d="M50.1145 149.591C49.2681 149.152 48.2733 148.657 47.2455 148.091V154.021C53.2582 157.934 59.0566 162.166 64.7506 166.53L63.3601 157.357C59.2215 154.312 54.7037 151.96 50.1145 149.591Z" fill="#B8A49B"/>
<path d="M60.3042 171.938C61.986 171.432 63.6624 170.921 65.3332 170.388L65.0529 168.536C59.26 164.068 53.3626 159.742 47.2455 155.708V165.403C49.711 166.886 52.2599 168.226 54.8796 169.415C56.6383 170.273 58.485 171.075 60.3042 171.938Z" fill="#B8A49B"/>
<path d="M61.222 172.384C62.8998 173.176 64.5149 174.094 66.0531 175.132L65.4376 171.081C64.0361 171.526 62.629 171.955 61.222 172.384Z" fill="#B8A49B"/>
<path d="M50.9389 189.185C56.5285 188.399 62.0905 186.486 67.7405 186.283L66.35 177.11C64.1637 175.455 61.7894 174.064 59.2765 172.966C55.1722 174.133 51.148 175.565 47.2291 177.253V189.674C48.4767 189.52 49.7078 189.361 50.9389 189.185Z" fill="#B8A49B"/>
<path d="M59.0017 188.459C56.1767 189.096 53.3352 189.558 50.4662 189.959C49.367 190.108 48.3227 190.245 47.2455 190.382V197.121C52.7416 195.081 58.1223 192.724 63.7338 191.196C65.2452 190.778 66.7731 190.426 68.2956 190.058L67.8284 186.991C64.844 187.096 61.9256 187.788 59.0017 188.459Z" fill="#B8A49B"/>
<path d="M58.3531 172.531C56.5229 171.695 54.6872 170.882 52.9669 170.052C51.0763 169.112 49.1197 168.178 47.2455 167.067V176.477C50.8652 174.939 54.5745 173.621 58.3531 172.531Z" fill="#B8A49B"/>
<path d="M64.8935 192.357C58.8478 193.923 53.1043 196.457 47.2455 198.628V204.783C54.286 201.37 61.8322 199.172 69.3453 196.902L68.5264 191.472C67.3118 191.763 66.1026 192.049 64.8935 192.357Z" fill="#B8A49B"/>
<path d="M47.2455 206.37V213.757C54.5443 209.701 62.7005 207.337 70.4446 204.144L69.5597 198.318C61.9586 200.599 54.33 202.831 47.2455 206.37Z" fill="#B8A49B"/>
<path d="M58.7983 213.23C61.354 212.306 63.8382 211.201 66.3829 210.256C67.9658 209.668 69.5762 209.157 71.0931 208.437L70.6589 205.562C62.8105 208.761 54.5663 211.158 47.2455 215.373V217.291C51.0818 215.895 54.962 214.615 58.7983 213.23Z" fill="#B8A49B"/>
<path d="M67.614 210.564C64.9155 211.526 62.3048 212.702 59.6117 213.686C55.5116 215.192 51.3676 216.544 47.2455 218.044V220.699C48.3775 221.538 49.5823 222.273 50.8454 222.897H73.2805L71.203 209.157C70.0433 209.696 68.8287 210.13 67.614 210.564Z" fill="#B8A49B"/>
<path d="M55.9788 113.042C55.9788 113.042 62.2279 104.078 86.2074 110.811L82.547 116.45L89.8678 113.042C89.8678 113.042 98.6066 118.115 100.146 120.836L93.4128 121.935L102.624 124.309C104.403 126.638 105.798 129.235 106.757 132.004C106.757 132.004 98.3703 137.302 89.6314 136.478L86.5646 130.63L87.6254 135.417L80.7772 135.181L77.8258 128.959L77.5895 134.235C77.5895 134.235 62.9314 132.174 58.5729 120.979C54.2145 109.783 55.9788 113.042 55.9788 113.042Z" fill="#A5D6CE"/>
<path d="M50.2683 130.584C52.9154 128.734 55.6824 127.061 58.551 125.577L57.8365 120.851C54.2585 122.461 50.6421 123.983 47.2455 125.918V128.001C48.2568 128.855 49.2644 129.716 50.2683 130.584Z" fill="#B8A49B"/>
<path d="M50.763 110.925L44.5029 116.421C37.358 117.443 32.6424 117.427 29.603 117.081C29.1358 117.031 28.7126 116.971 28.3279 116.905C25.4425 116.427 24.5466 115.668 24.5466 115.668L23.953 107.974L18.6383 113.036L16.5937 110.98L15.6869 110.068L14.3898 108.76L16.2805 102.895L10.9657 106.083C9.20157 104.602 7.65972 102.875 6.38746 100.955C6.10716 100.554 5.83783 100.153 5.57952 99.746C3.5849 96.5643 1.85865 93.2222 0.418665 89.7541C0.209813 89.2484 0.0999146 88.9626 0.0999146 88.9626L0.61655 88.8472C3.93668 88.2154 7.30168 87.8478 10.6799 87.748H11.6802C14.4854 87.6869 17.2916 87.7952 20.0837 88.0723C20.4245 88.0723 20.7598 88.1382 21.1005 88.1767C22.4251 88.3306 23.7881 88.5229 25.1786 88.7703C25.5744 88.8362 25.9756 88.9131 26.3713 88.9901C28.424 89.3957 30.4547 89.9056 32.4555 90.518C34.6245 91.1753 36.7103 92.0808 38.6716 93.2166C39.0783 93.4529 39.4685 93.7003 39.8532 93.9531C40.9499 94.6704 41.9865 95.4755 42.953 96.3604C43.3048 96.6737 43.6401 96.9979 43.9533 97.3277C47.6002 101.029 49.9836 105.788 50.763 110.925Z" fill="#8FC1B8"/>
<path d="M44.5249 114.959C43.0295 113.084 41.3401 111.372 39.485 109.853C37.7152 111.287 35.4673 112.288 33.6207 113.618C32.1752 114.653 30.8301 115.821 29.603 117.108C29.1358 117.058 28.7126 116.998 28.3279 116.932C29.5662 115.574 30.9338 114.341 32.4115 113.249C34.2747 111.848 36.4621 110.172 38.6936 109.21C35.6556 106.88 32.4293 104.806 29.0479 103.01C29.0122 103.098 28.9544 103.175 28.8803 103.233C28.8062 103.292 28.7181 103.331 28.6247 103.345C25.327 103.895 22.7219 105.94 20.1992 107.979C19.3638 108.649 18.0007 110.128 16.5937 110.979L15.6869 110.067C16.3079 109.638 16.9839 109.259 17.4896 108.841C18.6547 107.88 19.7925 106.896 20.9796 105.967C22.975 104.363 25.2246 103.103 27.6354 102.241C26.1459 101.444 24.651 100.674 23.1945 99.9158C21.4797 99.0328 19.7503 98.1735 18.0062 97.3381C17.1873 97.7888 16.1046 97.8163 15.1977 98.0362C13.7412 98.3879 12.3013 98.7891 10.8723 99.2563C9.33885 99.7564 7.85492 100.328 6.38746 100.955C6.10716 100.553 5.83783 100.152 5.57952 99.7454C7.10743 99.1189 8.66833 98.5638 10.2237 98.0966C11.7791 97.6294 13.5214 97.1678 15.2032 96.8325C15.5879 96.7611 15.9781 96.6511 16.3629 96.5687C14.5601 95.7223 12.7446 94.8979 10.9162 94.0954C7.4592 92.5785 3.88671 91.276 0.418665 89.7645C0.209813 89.2589 0.0999146 88.9731 0.0999146 88.9731L0.61655 88.8577C4.46382 90.1163 8.21214 91.8256 11.8945 93.4304H11.922C11.3365 91.6681 10.9332 89.8504 10.7184 88.0058C10.7184 87.9233 10.7184 87.8354 10.6799 87.7529H11.6802C11.6802 87.8738 11.7187 87.9948 11.7352 88.1157C12.0539 90.0888 12.7299 92.0069 13.0652 93.9635C15.7107 95.1287 18.3341 96.3323 20.9356 97.5745C20.2047 95.5189 20.0398 91.0726 20.0837 88.0772C20.4245 88.0772 20.7598 88.1432 21.1005 88.1816C21.1005 89.5007 21.0511 90.8142 21.161 92.1388C21.2709 93.4634 21.4468 94.766 21.6556 96.0685C21.7436 96.6181 21.7271 97.4261 21.892 98.0417L24.0409 99.0914L25.6348 99.8883C25.4836 99.2096 25.4025 98.5171 25.393 97.8218C25.2721 96.3269 25.1567 94.8264 25.0687 93.326C24.9556 91.8012 24.9998 90.2689 25.2006 88.7532C25.5963 88.8192 25.9975 88.8961 26.3933 88.9731C26.2932 89.4459 26.2271 89.9253 26.1954 90.4076C26.1432 91.7072 26.1762 93.0089 26.2943 94.3043C26.3823 95.6893 26.5032 97.0853 26.5472 98.4703C26.6135 99.0695 26.5763 99.6755 26.4372 100.262C30.3739 102.165 34.1687 104.349 37.7922 106.797C37.1217 104.291 37.6548 101.251 37.9571 98.7781C38.1769 96.9314 38.4078 95.0573 38.6936 93.1996C39.1003 93.4359 39.4905 93.6832 39.8752 93.936C39.6499 95.3211 39.4136 96.6841 39.2212 98.0856C38.9794 99.8553 38.776 101.625 38.6716 103.406C38.6808 104.693 38.5926 105.979 38.4078 107.253C39.3476 107.929 40.26 108.644 41.1558 109.386C40.8151 107.27 41.1888 104.923 41.5131 102.895C41.8727 100.688 42.3627 98.5036 42.9805 96.3543C43.3323 96.6676 43.6675 96.9919 43.9808 97.3217C43.4862 99.042 43.0025 100.768 42.6453 102.537C42.1506 105.033 42.2495 107.572 41.9308 110.062C43.2583 111.232 44.4897 112.508 45.6132 113.876C46.2177 114.64 45.146 115.756 44.5249 114.959Z" fill="#E5EEEE"/>
<path d="M52.4283 112.108C52.4283 112.108 45.899 98.917 49.6803 87.7104C53.4616 76.5039 62.9314 67.3748 74.149 59.9111C74.149 59.9111 78.0457 84.2369 72.6101 95.339C67.1744 106.441 55.9788 115.059 55.9788 115.059C55.9788 115.059 51.8567 119.665 52.4283 112.108Z" fill="#A5D6CE"/>
<path d="M73.1322 64.489C74.3743 62.0323 75.8803 59.6745 77.018 57.1683C77.0575 57.0797 77.063 56.9796 77.0337 56.8871C77.0043 56.7947 76.9419 56.7163 76.8585 56.6668C76.7751 56.6172 76.6764 56.6001 76.5811 56.6186C76.4859 56.6371 76.4008 56.6899 76.3419 56.767C73.2311 61.1639 70.9502 66.3742 68.7848 71.2768C68.5594 71.7824 68.3341 72.2935 68.1143 72.8047C67.2514 70.227 66.3555 67.7043 65.7454 65.0552C65.734 65.0039 65.7055 64.958 65.6645 64.9252C65.6236 64.8923 65.5726 64.8744 65.5201 64.8744C65.4676 64.8744 65.4166 64.8923 65.3756 64.9252C65.3347 64.958 65.3061 65.0039 65.2948 65.0552C64.976 66.2973 65.3772 67.4679 65.7344 68.6771C66.1961 70.249 66.7183 71.8044 67.2239 73.3653C67.2595 73.4709 67.3264 73.5633 67.4157 73.63C67.5051 73.6968 67.6126 73.7348 67.724 73.739C66.8593 75.7689 66.0312 77.8079 65.2398 79.8562C64.1405 76.2232 63.7283 72.387 62.4917 68.798C62.3433 68.3638 61.5739 68.3528 61.6343 68.8914C61.9261 70.8301 62.3168 72.7526 62.805 74.6514C63.139 76.5542 63.613 78.4298 64.223 80.2629C64.2751 80.4016 64.3755 80.5169 64.5057 80.5876C64.6359 80.6582 64.7873 80.6796 64.932 80.6476C64.2248 82.4796 63.5323 84.3117 62.8545 86.1437C61.9916 88.5125 61.1452 90.8869 60.2988 93.2887C58.5675 87.9739 57.0506 82.4943 54.9566 77.3499C54.7807 76.9212 54.1376 77.0312 54.2531 77.5203C55.6051 83.1978 57.6826 88.7818 59.4084 94.3604C59.4343 94.4522 59.4817 94.5365 59.5467 94.6063C59.6117 94.676 59.6924 94.7293 59.7821 94.7616L58.8423 97.3612H58.7599C58.6809 97.3928 58.6104 97.4423 58.5538 97.5058C58.4972 97.5692 58.4561 97.645 58.4337 97.727C58.4113 97.809 58.4083 97.8951 58.4248 97.9786C58.4414 98.062 58.4771 98.1404 58.529 98.2077C58.4081 98.5484 58.2872 98.8892 58.1608 99.2299C57.2759 96.1741 56.2207 93.1842 55.3138 90.1064C54.4069 87.0286 53.8189 83.4506 52.4394 80.5047C52.4135 80.4608 52.3741 80.4264 52.327 80.4067C52.28 80.3871 52.2279 80.3831 52.1785 80.3955C52.129 80.4078 52.0849 80.4359 52.0527 80.4753C52.0205 80.5148 52.0019 80.5637 51.9997 80.6146C52.192 83.8299 53.4891 87.2429 54.341 90.3427C55.2534 93.6679 56.1162 97.0645 57.2814 100.313C57.1828 100.38 57.103 100.471 57.0495 100.578C56.9959 100.685 56.9704 100.803 56.9754 100.923C56.9803 101.042 57.0155 101.158 57.0777 101.26C57.1399 101.362 57.2271 101.446 57.3309 101.505C56.6494 103.359 55.9495 105.202 55.2314 107.034C54.7257 104.962 53.2802 102.857 52.3239 101.121C51.6479 99.8895 50.9719 98.6529 50.3948 97.3778C49.7133 95.8828 49.378 94.2999 48.746 92.794C48.7335 92.7372 48.7005 92.687 48.6533 92.653C48.6062 92.6189 48.5481 92.6035 48.4902 92.6097C48.4324 92.6158 48.3789 92.643 48.3399 92.6861C48.3008 92.7293 48.2791 92.7853 48.2788 92.8435C48.1084 95.3992 49.6583 98.1472 50.785 100.362C51.472 101.703 52.181 103.033 52.8076 104.402C53.4341 105.77 53.7584 107.26 54.4839 108.535C54.5092 108.578 54.5407 108.617 54.5773 108.65C54.4344 109.03 54.2861 109.403 54.1377 109.749C53.1978 112.129 52.1426 114.592 51.7798 117.131C51.6864 117.796 52.6152 118.137 52.8241 117.439C53.7474 114.35 54.8302 111.343 55.9569 108.342C59.7107 107.612 63.8053 106.144 66.6468 103.627C66.6755 103.595 66.6934 103.555 66.6979 103.512C66.7025 103.47 66.6934 103.427 66.6721 103.389C66.6508 103.352 66.6182 103.323 66.5791 103.305C66.5401 103.288 66.4964 103.283 66.4544 103.292C64.5253 103.984 62.7116 104.94 60.7879 105.638C59.3782 106.146 57.9415 106.575 56.4845 106.924C57.0341 105.408 57.6332 103.891 58.1993 102.368L58.5235 101.478C61.1488 101.302 63.7377 100.767 66.2181 99.8895C68.3781 99.131 71.6317 98.1417 72.8629 96.1082C72.9673 95.9433 72.7914 95.7839 72.632 95.8004C71.5328 95.9268 70.6864 96.5369 69.7081 97.015C68.3757 97.6783 66.996 98.2423 65.5805 98.7023C63.4546 99.3745 61.2646 99.824 59.0457 100.043C59.2545 99.4937 59.4579 98.8947 59.6667 98.3231C61.9421 98.1582 64.3604 97.2678 66.4434 96.5094C68.7023 95.6849 70.9997 94.7781 72.8794 93.2612C73.0662 93.1073 72.8794 92.772 72.643 92.8435C70.3182 93.5635 68.1417 94.6902 65.8279 95.4541C63.9977 96.0642 62.0466 96.372 60.1834 96.8831C60.9418 94.7762 61.6985 92.6694 62.4533 90.5626H62.5137C64.888 90.2383 67.2843 89.282 69.5213 88.4466C71.6318 87.6606 73.7807 86.8582 75.6055 85.5116C75.7538 85.4017 75.6714 85.1324 75.4735 85.1874C73.1157 85.792 70.9228 86.8912 68.6364 87.7156C66.7183 88.4136 64.7066 88.8863 62.7995 89.5953C63.1018 88.7544 63.3986 87.919 63.7064 87.0781C66.0276 86.3784 68.2899 85.4962 70.4721 84.4399C72.2693 83.5661 75.2317 82.4174 76.243 80.5927C76.2569 80.5662 76.2631 80.5362 76.2608 80.5064C76.2586 80.4765 76.2479 80.4479 76.2301 80.4238C76.2124 80.3997 76.1882 80.3812 76.1603 80.3702C76.1324 80.3592 76.102 80.3563 76.0726 80.3618C74.9734 80.5157 74.1764 81.2302 73.2476 81.7688C72.3188 82.3074 71.2525 82.868 70.2302 83.3847C68.2767 84.3402 66.2561 85.1521 64.1845 85.814C65.9488 80.9939 67.7735 76.1903 69.829 71.4801C70.855 69.1388 71.956 66.8084 73.1322 64.489Z" fill="#8FC1B8"/>
<path d="M51.0323 109.397C50.38 109.169 49.6882 109.076 48.9988 109.122C46.8003 108.182 44.0522 109.172 42.222 110.771C39.6664 113.074 38.699 116.949 40.6831 119.928C42.5683 122.758 47.2785 123.418 50.087 121.576C51.1052 120.894 51.9791 120.018 52.6592 118.999C53.4328 118.024 53.9149 116.85 54.0497 115.613C54.275 113.486 53.3022 110.254 51.0323 109.397ZM46.3606 119.257C45.5692 119.257 44.7723 119.295 44.1952 118.795C44.7879 119.105 45.459 119.233 46.1243 119.164C46.1989 119.2 46.2761 119.231 46.3551 119.257H46.3606Z" fill="#5D5550"/>
<path d="M108.28 132.509C107.01 131.409 105.153 130.904 103.674 130.096C101.959 129.156 100.283 128.145 98.5022 127.348C94.6549 125.595 90.5713 124.391 86.5756 123.094L83.5693 122.127C86.07 121.027 88.5652 119.928 91.1044 118.922C92.3356 118.439 93.5704 117.968 94.8088 117.51C95.8256 117.136 96.8479 116.96 97.5899 116.141C97.6077 116.119 97.6193 116.093 97.6235 116.065C97.6277 116.036 97.6243 116.008 97.6136 115.981C97.603 115.955 97.5855 115.932 97.5629 115.915C97.5404 115.897 97.5136 115.886 97.4854 115.883C96.2708 115.713 95.0616 116.367 93.9349 116.779C92.5884 117.273 91.2528 117.79 89.9228 118.318C87.4276 119.313 84.9378 120.335 82.5086 121.484C82.4066 121.529 82.3259 121.611 82.2832 121.714C79.3153 120.769 76.3364 119.853 73.3465 118.966C75.7043 117.587 77.7434 115.581 79.9418 113.981C82.3601 112.228 84.9323 110.739 87.4056 109.073C87.5368 109 87.6336 108.878 87.6748 108.734C87.7161 108.59 87.6983 108.435 87.6254 108.304C87.5525 108.173 87.4305 108.076 87.2862 108.035C87.1419 107.993 86.9871 108.011 86.856 108.084C84.0567 109.626 81.3862 111.39 78.8701 113.36C76.7267 114.965 74.3194 116.603 72.72 118.779C71.5218 118.413 70.3218 118.069 69.12 117.746C69.7753 117.26 70.3977 116.731 70.9832 116.163C72.011 115.256 73.0223 114.328 74.0555 113.415C76.3126 111.362 78.845 109.635 81.5797 108.282C82.2612 107.958 81.6511 106.946 80.9751 107.238C78.3836 108.452 75.9942 110.057 73.8907 111.997C72.7914 112.959 71.6922 113.965 70.6314 114.965C69.796 115.74 68.7188 116.488 68.0538 117.444C65.7179 116.806 63.3711 116.196 61.0243 115.641C60.8261 115.6 60.6199 115.638 60.4485 115.745C60.2772 115.853 60.1539 116.022 60.1043 116.219C60.0548 116.415 60.0827 116.622 60.1824 116.798C60.2821 116.974 60.4458 117.105 60.6395 117.164L69.3344 119.477C69.1695 120.538 69.4388 121.676 69.5707 122.775C69.7283 124.076 69.9115 125.375 70.1203 126.672C70.5655 129.64 71.1151 132.597 71.7362 135.537C71.7761 135.649 71.8562 135.742 71.9609 135.798C72.0655 135.854 72.1873 135.869 72.3025 135.84C72.4177 135.811 72.5181 135.741 72.5841 135.642C72.6501 135.543 72.6769 135.424 72.6595 135.306C72.0439 132.485 71.5053 129.649 71.0436 126.798C70.7963 125.237 70.5765 123.676 70.3731 122.11C70.3218 121.29 70.2004 120.475 70.0104 119.675L73.7313 120.632C73.5609 123.028 74.0665 125.655 74.2809 128.018C74.5337 130.887 74.7645 133.762 74.9899 136.631C75.0393 137.268 76.0396 137.323 75.9901 136.658C75.7813 133.782 75.5377 130.911 75.2592 128.046C75.0338 125.737 75.0064 123.099 74.3908 120.808C78.2381 121.868 82.1183 122.967 85.9326 124.166C87.5375 124.666 89.1588 125.149 90.7747 125.655C90.7926 125.708 90.8186 125.758 90.8516 125.803C92.1055 127.255 93.0332 128.959 93.5722 130.799C94.1218 132.74 94.3746 134.751 94.9957 136.675C95.2375 137.422 96.4027 137.164 96.1664 136.389C95.243 133.344 94.9407 128.821 92.6104 126.254C94.4516 126.864 96.2653 127.529 98.024 128.31L98.1065 128.348C98.6561 130.849 98.5956 133.383 98.821 135.933C98.8924 136.697 100.069 136.774 100.025 135.966C99.9367 134.24 99.7938 132.503 99.6014 130.783C99.5473 130.131 99.4106 129.488 99.1947 128.87C100.624 129.585 102.014 130.387 103.432 131.129C104.85 131.871 106.559 132.965 108.148 132.778C108.177 132.774 108.205 132.763 108.229 132.745C108.253 132.728 108.272 132.705 108.285 132.678C108.298 132.652 108.304 132.622 108.303 132.593C108.303 132.563 108.294 132.534 108.28 132.509Z" fill="#E5EEEE"/>
<path d="M64.954 116.037C64.7105 115.792 64.4497 115.564 64.1735 115.356C63.2994 114.373 62.1613 113.662 60.8947 113.307C59.628 112.952 58.286 112.969 57.0286 113.355C56.2657 113.558 55.5778 113.977 55.0481 114.562C54.5184 115.147 54.1697 115.874 54.0442 116.653C53.332 118.15 53.1837 119.853 53.6265 121.451C53.6265 121.495 53.6265 121.544 53.665 121.594C53.7035 121.643 53.665 121.693 53.709 121.737C54.032 122.837 54.643 123.831 55.4787 124.617C56.1226 125.192 56.8852 125.619 57.7125 125.867C58.5398 126.115 59.4115 126.178 60.2658 126.051C62.9424 126.502 65.9488 123.693 66.3115 121.105C66.5643 119.291 66.2511 117.362 64.954 116.037ZM62.1125 116.977C62.5278 117.358 62.8463 117.833 63.0413 118.362C63.3409 119.213 63.2976 120.148 62.9204 120.967C63.169 119.583 62.88 118.156 62.1125 116.977ZM58.8973 119.67C59.015 119.754 59.105 119.87 59.1556 120.005C59.0723 119.999 58.9896 119.986 58.9083 119.967C58.8912 119.869 58.8875 119.769 58.8973 119.67Z" fill="#5D5550"/>
<path d="M67.7002 183.561L67.6875 183.587C67.6919 183.678 67.6633 183.767 67.6072 183.839C67.5846 183.904 67.5451 183.962 67.4927 184.006C66.8114 184.578 65.6698 184.583 64.8352 184.695C63.8117 184.876 62.7767 184.985 61.7378 185.019C61.0067 185.018 60.0721 184.765 59.9807 183.913C59.8892 183.06 60.9135 182.742 61.562 182.594C62.3626 182.413 63.2033 182.508 63.9849 182.357C63.4571 181.977 62.9033 181.635 62.3276 181.333C61.6343 180.917 60.9739 180.448 60.3522 179.931C59.7753 179.415 58.7093 177.767 59.9777 177.229C61.6011 176.538 64.4823 180.464 64.9757 180.679C65.0591 180.405 64.8256 179.946 64.7408 179.688C64.5694 179.168 63.6393 176.052 64.5047 175.707C64.9655 175.534 65.8754 175.959 66.9998 178.559C67.6156 179.986 67.9751 182.014 67.6905 183.548L67.7002 183.561Z" fill="#F56049"/>
<path d="M133.091 197.186C133.162 196.975 133.175 196.748 133.128 196.529C133.082 196.311 132.978 196.109 132.827 195.945C130.33 193.575 127.002 195.34 124.03 196.318C121.434 197.172 118.894 198.19 116.425 199.364C122.071 193.781 127.682 188.057 131.856 181.389C132.318 180.654 131.86 179.393 130.866 179.439C121.575 180.003 113.737 188.131 107.926 195.874C110.079 185.537 110.395 174.977 110.548 164.393C110.567 163.543 109.55 162.638 108.709 163.21C98.0863 170.449 96.9527 183.324 96.3193 195.346C94.0213 189.347 91.0858 183.612 87.5635 178.24C85.4297 174.931 83.1571 171.716 80.8413 168.532C79.6471 166.901 77.9242 163.098 75.6881 162.631C75.4764 162.562 75.2503 162.55 75.0323 162.595C74.8143 162.641 74.612 162.742 74.4454 162.89C70.1568 167.691 76.0879 179.255 77.8668 184.161C80.4081 191.169 84.3414 196.545 88.8044 202.038C79.8338 197.659 70.5331 193.992 60.9881 191.07C60.1321 190.812 59.0719 191.584 59.3596 192.542C61.0149 197.99 65.9306 202.175 70.7038 204.995C74.0115 206.961 77.6096 207.859 81.228 208.644C80.5355 208.662 79.8398 208.695 79.1379 208.749C74.0512 209.135 66.096 210.071 61.9549 213.469C56.7556 217.725 65.6382 219.993 68.9043 220.308C74.0562 220.715 79.2387 220.49 84.3356 219.636C90.5249 218.585 96.8341 215.256 103.029 217.09C107.986 218.554 111.964 219.827 117.219 220.063C120.827 220.243 125.831 221.242 129.238 219.9C129.437 219.803 129.605 219.653 129.725 219.467C129.845 219.281 129.912 219.065 129.918 218.844C129.758 212.17 122.48 210.038 116.416 209.391C119.463 207.793 122.414 206.02 125.256 204.08C127.749 202.379 132.158 200.263 133.091 197.186Z" fill="#F4C916"/>
<path d="M72.7743 191.356C72.7623 191.421 72.7327 191.481 72.6888 191.53C72.6784 191.688 72.4852 191.829 72.334 191.731L72.2795 191.744C72.2516 191.768 72.2174 191.783 72.181 191.787C72.1446 191.792 72.1076 191.786 72.0745 191.771L71.7386 191.641C71.6904 191.644 71.642 191.642 71.5943 191.634C69.6557 191.326 67.6939 191.438 65.733 191.143C64.722 190.988 62.501 190.637 62.373 189.291C62.163 187.057 68.5168 188.99 70.7375 189.845L71.0006 189.878C70.953 189.79 70.9189 189.695 70.8996 189.597C70.5223 186.697 69.8861 183.406 71.9067 180.944C72.1121 180.698 72.4485 180.932 72.5939 181.115C73.6693 182.445 73.5271 184.209 73.4947 185.84C73.5161 187.706 73.2725 189.565 72.7712 191.363L72.7743 191.356Z" fill="#F56049"/>
<path d="M79.4252 208.468C79.3859 208.52 79.3351 208.562 79.2768 208.591C79.2055 208.735 78.9702 208.799 78.8538 208.638L78.8088 208.616C78.7743 208.627 78.7373 208.628 78.7021 208.619C78.6668 208.61 78.6349 208.592 78.6097 208.566L78.3326 208.317C78.287 208.299 78.2429 208.277 78.2007 208.252C76.5099 207.255 74.6368 206.627 72.9429 205.637C72.0581 205.121 70.1211 203.974 70.5001 202.678C71.1227 200.523 76.3202 204.655 78.0739 206.263L78.315 206.382C78.301 206.282 78.3037 206.181 78.3229 206.082C79.041 203.238 79.657 199.945 82.438 198.406C82.7193 198.249 82.9458 198.592 83.0128 198.813C83.5144 200.455 82.7442 202.034 82.1179 203.54C81.4509 205.284 80.5411 206.925 79.4153 208.415L79.4252 208.468Z" fill="#F56049"/>
<path d="M79.4673 194.012C79.668 192.956 79.7725 191.6 79.1947 190.64C78.9276 190.193 78.4011 189.817 77.9049 189.956C77.7024 190.021 77.5195 190.136 77.3729 190.29C77.032 190.65 76.759 191.07 76.567 191.527C75.5527 193.703 75.1688 196.12 75.459 198.503C74.5171 197.703 73.5345 196.952 72.5153 196.253C71.4257 195.536 70.2037 194.926 68.9016 194.892C68.3179 194.876 67.6374 195.024 67.379 195.548C67.2851 195.755 67.2476 195.983 67.2703 196.209C67.293 196.435 67.3751 196.651 67.5082 196.835C67.7808 197.199 68.1294 197.499 68.5297 197.714C70.6825 199.023 73.1903 199.611 75.6241 200.171C75.8027 200.225 75.9906 200.242 76.1759 200.219C76.5715 200.139 76.8372 199.502 77.0327 199.203C78.0944 197.584 79.1064 195.944 79.4721 194.01L79.4673 194.012Z" fill="#F56049"/>
<path d="M73.9862 213.437C75.6767 214.67 77.7484 215.267 79.8487 215.815C80.2389 215.915 80.9285 216.227 81.341 216.031C81.5219 215.93 81.6817 215.796 81.8118 215.635C83.6407 213.603 85.5031 211.527 86.5379 209.127C86.746 208.713 86.8527 208.254 86.8493 207.79C86.8348 207.555 86.7526 207.329 86.6127 207.14C86.4729 206.95 86.2812 206.805 86.0609 206.722C85.4504 206.509 84.7355 206.824 84.2183 207.217C83.0545 208.094 82.3674 209.35 81.8888 210.613C81.4544 211.806 81.0883 213.023 80.7922 214.257C79.3061 212.183 77.2533 210.582 74.88 209.645C74.3722 209.417 73.8301 209.276 73.2759 209.226C73.0326 209.203 72.7873 209.235 72.5581 209.32C72.3117 209.443 72.1125 209.644 71.9906 209.891C71.8687 210.139 71.8309 210.419 71.8829 210.69C72.0352 211.8 73.0813 212.767 74.0055 213.446L73.9862 213.437Z" fill="#F56049"/>
<path d="M60.9786 178.197C66.1436 180.563 69.9011 186.044 72.4589 190.893C73.8536 193.58 75.113 196.335 76.2323 199.148C77.3169 201.813 82.5133 217.22 82.647 220.128C82.6718 220.54 81.9947 220.738 81.8911 220.291C80.5533 214.571 75.9591 198.486 71.7689 191.361C70.3457 188.937 68.9848 186.467 67.2055 184.279C65.3437 181.991 63.1624 180.164 60.9118 178.284C60.8973 178.277 60.8862 178.264 60.881 178.249C60.8758 178.233 60.8769 178.217 60.8841 178.202C60.8912 178.188 60.9038 178.177 60.9191 178.171C60.9344 178.166 60.9512 178.167 60.9657 178.174L60.9786 178.197Z" fill="#F56049"/>
<path d="M98.9969 201.771C99.1457 200.317 97.3611 198.91 96.0582 199.567C97.2529 198.765 99.2057 197.073 99.703 195.724C100.273 194.186 98.9351 192.1 97.209 192.78C98.3394 191.954 99.9447 188.932 99.4883 187.344C99.215 186.382 98.0274 185.613 97.2148 186.224C97.9074 185.094 99.0127 183.249 99.0933 181.926C99.1887 180.11 98.1353 178.688 96.8522 179.45C97.6154 177.78 98.6532 175.058 96.7356 173.937C95.661 173.311 94.9078 173.939 94.7857 174.455C94.9145 173.41 94.7929 172.349 94.4309 171.361C94.069 170.372 93.4771 169.483 92.7042 168.769C92.4454 168.498 92.1133 168.31 91.7487 168.226C90.6879 168.059 90.0108 169.368 89.9303 170.423C89.815 171.902 90.1345 173.382 90.8493 174.681C90.1714 173.623 89.2379 172.428 87.9698 172.462C86.511 172.503 85.8912 173.728 86.2007 175.152C86.5423 176.686 87.2934 178.099 88.3742 179.241C87.5193 178.072 85.4701 177.753 84.9053 179.086C84.2805 180.572 85.4007 182.711 86.5361 183.886C84.9397 183.695 83.5603 184.718 83.608 186.324C83.6557 187.93 84.8135 189.928 86.2798 190.634C85.1047 189.824 83.2838 191.036 83.1878 192.456C83.0446 194.62 84.5514 196.809 86.8876 198.224C84.928 197.602 82.9906 201.428 85.4539 203.769C87.1246 205.422 88.9008 206.965 90.7712 208.388C90.911 208.437 98.6353 205.277 98.9969 201.771Z" fill="#24CCEA"/>
<path d="M92.0189 177.343C92.5582 190.603 91.196 204.444 89.376 217.576C89.3129 218.029 90.0114 218.209 90.0873 217.755C91.923 204.559 93.2993 190.664 92.758 177.336C92.7558 177.24 92.7157 177.15 92.6466 177.084C92.5775 177.018 92.4851 176.982 92.3896 176.984C92.2942 176.987 92.2036 177.027 92.1377 177.096C92.0718 177.165 92.036 177.257 92.0382 177.353L92.0189 177.343Z" fill="#042B5B"/>
<path d="M93.846 197.397C94.4701 196.515 95.214 195.723 96.0563 195.045C96.2366 194.899 95.9755 194.65 95.7855 194.784C94.9226 195.488 94.1602 196.306 93.5194 197.216C93.3874 197.403 93.7011 197.578 93.8331 197.391L93.846 197.397Z" fill="#042B5B"/>
<path d="M94.0741 190.747C94.6405 189.96 95.2948 189.239 96.0243 188.599C96.1965 188.444 95.9402 188.194 95.7534 188.338C95.0076 188.999 94.3376 189.741 93.7555 190.55C93.6219 190.74 93.9356 190.915 94.0676 190.728L94.0741 190.747Z" fill="#042B5B"/>
<path d="M88.3796 195.058L90.0696 197.598C90.199 197.789 90.5058 197.605 90.3812 197.412L88.6864 194.874C88.557 194.682 88.2502 194.866 88.3796 195.058Z" fill="#042B5B"/>
<path d="M88.8811 188.511C89.4624 189.22 89.9791 189.979 90.4252 190.779C90.537 190.982 90.8454 190.794 90.732 190.595C90.2709 189.767 89.7357 188.983 89.1329 188.252C88.9844 188.075 88.7373 188.332 88.8747 188.524L88.8811 188.511Z" fill="#042B5B"/>
<path d="M89.1717 181.312L90.7577 183.324C90.8982 183.502 91.2082 183.319 91.0644 183.14L89.4785 181.127C89.3396 180.947 89.0296 181.13 89.1717 181.312Z" fill="#042B5B"/>
<path d="M95.31 180.657C94.7686 181.317 94.2241 181.976 93.6764 182.649C93.5331 182.827 93.7879 183.08 93.9488 182.908L95.5792 180.913C95.7225 180.736 95.4677 180.483 95.3068 180.655L95.31 180.657Z" fill="#042B5B"/>
<path d="M306.592 58.8339C309.922 57.6478 309.949 52.1004 307.066 49.4363C304.639 47.1827 298.699 47.794 296.546 50.4399C296.154 39.3179 277.952 40.0478 275.388 49.9655C271.2 47.6754 266.319 50.7227 264.831 54.4453C263.344 58.1678 264.941 63.0856 268.992 64.3629C263.016 65.9687 264.266 72.9941 266.811 75.266C270.087 78.1947 276.994 77.0907 279.977 72.9029C281.154 79.0889 280.032 85.9227 278.8 90.8222L280.725 90.6032C284.074 91.1598 283.672 90.8678 287.45 90.6032C292.23 90.2656 294.32 90.1744 299.073 90.1744C297.604 85.6946 296.592 76.817 298.006 72.2551C300.688 75.3572 309.201 75.9959 312.604 70.9321C315.734 66.1695 312.768 58.1222 306.592 58.8339Z" fill="#E7E8E9"/>
<path d="M222.059 211.987C222.059 211.987 240.836 188.949 257.505 137.253C265.616 112.135 275.753 85.2471 275.753 85.2471C275.753 85.2471 280.023 87.8109 291.546 87.8109C303.07 87.8109 304.812 86.7616 304.812 86.7616C304.812 86.7616 313.881 123.321 319.319 144.999C332.093 195.847 348.333 216.257 348.333 216.257C348.333 216.257 324.73 223.465 287.605 222.863C240.307 222.105 222.059 211.987 222.059 211.987Z" fill="#AA7C50"/>
<path d="M275.488 84.6081C274.193 84.8727 268.052 104.097 261.948 121.961C256.474 138.092 250.772 153.028 251.857 153.393C254.147 154.15 259.476 138.165 262.897 132.837C266.319 127.509 267.459 116.852 270.132 118.759C272.806 120.666 270.132 136.642 275.078 135.127C280.023 133.612 280.406 115.711 285.734 117.992C291.063 120.273 291.829 146.924 296.391 144.26C300.953 141.596 294.493 116.888 299.438 117.618C304.384 118.348 320.998 165.975 324.766 161.303C325.524 160.391 317.586 136.268 312.723 117.053C308.033 98.4947 306.847 86.7431 305.779 85.2468C304.712 83.7505 300.022 87.3818 290.424 87.3818C277.806 87.3818 276.802 84.3435 275.488 84.6081Z" fill="#F99D25"/>
<path d="M331.86 125.218C330.318 120.766 324.726 118.486 324.726 118.486C324.726 118.486 321.97 120.017 320.902 125.14C320.902 125.14 319.618 122.742 312.169 122.314C312.169 122.314 310.884 127.023 312.255 130.96C312.255 130.96 310.285 130.619 304.636 131.475C304.636 131.475 304.636 135.67 307.375 138.924C307.375 138.924 305.492 139.265 300.696 143.032C300.696 143.032 301.81 147.226 305.324 150.053C305.324 150.053 301.729 152.367 300.447 155.361C300.447 155.361 301.13 157.328 305.075 159.897C304.049 160.325 301.026 164.074 301.052 164.092C302.209 165.333 303.632 167.479 305.588 168.373C305.417 168.46 303.105 168.801 301.309 169.573C301.48 171.37 302.515 173.294 302.935 174.879C301.879 173.765 298.729 171.321 297.369 171.028C296.073 172.006 294.375 174.049 293.689 175.223C293.689 175.223 291.034 171.885 288.98 171.37C287.133 172.423 285.642 174.003 284.699 175.909C282.982 174.425 280.872 173.473 278.624 173.169C278.624 173.169 276.654 175.564 276.483 178.648C276.483 178.648 275.285 177.618 272.202 177.106C272.202 177.106 270.917 178.475 269.887 181.388C268.857 184.301 283.4 183.942 283.4 183.942C283.4 183.942 310.283 178.446 310.283 177.948C310.283 177.451 312.681 140.631 312.851 140.107C313.022 139.584 331.86 125.218 331.86 125.218Z" fill="#6EB727"/>
<path d="M304.118 202.703C304.118 202.703 303.947 210.135 304.118 213.386C304.254 215.99 303.947 218.694 307.202 219.039C310.286 219.363 315.932 219.721 318.16 218.865C320.387 218.009 317.989 216.296 316.277 215.269V195.407" fill="#6EB727"/>
<path d="M284.343 202.103C284.343 202.103 284.169 209.532 284.343 212.786C284.479 215.39 284.169 218.095 287.424 218.436C290.507 218.763 295.813 219.122 298.04 218.265C300.268 217.409 297.87 215.697 296.157 214.67V194.808" fill="#6EB727"/>
<path d="M347.267 145.066C347.742 136.518 344.357 120.411 324.495 124.006C301.668 128.137 304.856 156.715 305.356 171.503C305.431 173.734 304.974 174.419 302.521 174.5C297.852 174.657 288.725 174.622 283.058 175.73C275.181 177.272 270.7 183.121 261.139 181.382C256.118 180.468 254.176 177.387 252.921 177.957C250.257 179.166 251.801 189.965 259.942 194.394C268.331 198.962 273.639 195.421 275.352 199.532C277.064 203.643 276.22 213.915 276.379 217.681C276.538 221.448 277.064 223.675 283.744 223.675C292.133 223.675 293.331 222.99 288.708 219.394C288.708 219.394 288.537 212.202 288.708 206.828C288.777 204.664 289.828 204.325 291.207 204.325H292.885C295.043 204.325 295.385 204.782 295.385 206.828C295.385 206.828 295.214 214.256 295.385 217.511C295.523 220.097 295.214 222.819 298.468 223.16C301.552 223.484 307.202 223.846 309.426 222.99C311.651 222.133 309.256 220.421 307.543 219.394V205.948C307.543 205.51 307.696 205.087 307.976 204.75C308.256 204.414 308.646 204.187 309.076 204.108C312.044 203.564 316.384 201.331 320.043 194.895C324.339 187.359 323.471 157.737 323.471 157.737C323.471 157.737 339.138 159.365 341.962 149.177C341.959 149.177 347.097 148.15 347.267 145.066Z" fill="#AAD81A"/>
<path d="M309.374 204.054C312.4 203.475 316.962 201.392 320.899 195.407C325.181 188.901 323.468 157.737 323.468 157.737C321.253 157.644 319.062 157.241 316.959 156.539C316.959 178.629 318.672 198.661 309.374 204.054Z" fill="#F2F20F"/>
<path d="M321.411 142.671C325.004 142.671 327.917 139.834 327.917 136.335C327.917 132.836 325.004 130 321.411 130C317.818 130 314.905 132.836 314.905 136.335C314.905 139.834 317.818 142.671 321.411 142.671Z" fill="white"/>
<path d="M335.965 141.643C339.558 141.643 342.471 138.807 342.471 135.308C342.471 131.809 339.558 128.973 335.965 128.973C332.372 128.973 329.459 131.809 329.459 135.308C329.459 138.807 332.372 141.643 335.965 141.643Z" fill="white"/>
<path d="M321.858 140.397C323.734 140.323 325.185 138.503 325.099 136.332C325.013 134.161 323.423 132.461 321.547 132.535C319.672 132.609 318.221 134.429 318.306 136.6C318.392 138.771 319.982 140.471 321.858 140.397Z" fill="#211E1C"/>
<path opacity="0.5" d="M282.029 182.381C283.545 182.03 284.569 180.862 284.317 179.771C284.065 178.679 282.632 178.079 281.116 178.429C279.599 178.779 278.575 179.948 278.827 181.039C279.079 182.13 280.512 182.731 282.029 182.381Z" fill="#6EB727"/>
<path opacity="0.5" d="M288.789 181.839C287.771 181.932 286.894 181.414 286.828 180.682C286.761 179.95 287.531 179.282 288.549 179.189C289.567 179.097 290.441 179.618 290.507 180.346C290.574 181.075 289.804 181.747 288.789 181.839Z" fill="#6EB727"/>
<path opacity="0.5" d="M330.095 128.663C329.309 128.732 328.632 128.333 328.58 127.766C328.528 127.199 329.123 126.684 329.91 126.609C330.697 126.533 331.374 126.938 331.426 127.502C331.478 128.067 330.879 128.59 330.095 128.663Z" fill="#6EB727"/>
<path opacity="0.5" d="M276.847 186.664C275.69 186.779 274.669 186.172 274.597 185.304C274.525 184.436 275.418 183.641 276.587 183.525C277.756 183.409 278.765 184.019 278.838 184.884C278.91 185.749 278.016 186.545 276.847 186.664Z" fill="#6EB727"/>
<path opacity="0.5" d="M325.412 128.325C324.255 128.44 323.237 127.83 323.164 126.962C323.092 126.094 323.983 125.299 325.152 125.183C326.32 125.067 327.33 125.678 327.402 126.546C327.475 127.413 326.584 128.209 325.412 128.325Z" fill="#6EB727"/>
<path d="M334.947 139.28C336.731 139.28 338.178 137.497 338.178 135.297C338.178 133.097 336.731 131.313 334.947 131.313C333.162 131.313 331.715 133.097 331.715 135.297C331.715 137.497 333.162 139.28 334.947 139.28Z" fill="#211E1C"/>
<path d="M336.839 150.509C334.27 151.056 331.545 151.117 328.927 150.981C326.239 150.855 323.58 150.38 321.015 149.569C319.077 148.941 316.577 148.024 315.498 146.167C314.943 145.201 313.416 145.794 313.656 146.879C313.757 147.336 314.173 147.775 314.489 148.096C314.926 148.53 315.411 148.913 315.935 149.236C318.336 150.743 321.252 151.498 324.021 151.973C329.257 152.87 334.6 152.551 339.786 151.498C340.238 151.406 340.692 151.305 341.143 151.209C341.484 150.565 341.754 149.886 341.947 149.184C341.947 149.184 340.961 149.633 336.839 150.509Z" fill="#5DA032"/>
<g clip-path="url(#clip0)">
<path d="M290.984 212.933C291.012 212.843 291.014 212.747 290.992 212.656C290.969 212.565 290.921 212.482 290.855 212.416C289.818 211.51 288.48 212.292 287.298 212.747C286.264 213.147 285.256 213.612 284.28 214.138C286.448 211.764 288.605 209.333 290.16 206.55C290.331 206.245 290.118 205.738 289.719 205.785C285.965 206.204 282.979 209.648 280.765 212.902C281.423 208.676 281.33 204.404 281.174 200.121C281.174 199.774 280.734 199.428 280.402 199.676C276.254 202.826 276.062 208.05 276.052 212.923C274.998 210.548 273.691 208.293 272.153 206.198C271.219 204.905 270.234 203.654 269.228 202.417C268.71 201.781 267.937 200.281 267.02 200.136C266.929 200.11 266.833 200.108 266.742 200.132C266.65 200.155 266.567 200.203 266.501 200.271C264.863 202.298 267.507 206.85 268.331 208.79C269.508 211.573 271.209 213.662 273.133 215.788C269.409 214.204 265.565 212.916 261.638 211.935C261.551 211.912 261.459 211.913 261.373 211.936C261.286 211.96 261.207 212.005 261.143 212.068C261.079 212.131 261.033 212.21 261.009 212.296C260.985 212.382 260.983 212.474 261.005 212.561C261.788 214.728 263.872 216.31 265.858 217.36C267.227 218.012 268.693 218.436 270.198 218.617C269.918 218.617 269.638 218.664 269.358 218.7C267.284 218.964 264.101 219.507 262.493 220.966C260.476 222.797 264.121 223.526 265.449 223.588C267.539 223.643 269.628 223.443 271.671 222.993C274.159 222.445 276.643 220.966 279.194 221.581C281.232 222.067 282.87 222.497 285.006 222.486C286.474 222.486 288.516 222.781 289.87 222.171C289.946 222.125 290.01 222.061 290.054 221.984C290.099 221.907 290.123 221.82 290.124 221.731C289.916 219.036 286.925 218.328 284.457 218.193C285.658 217.485 286.816 216.706 287.925 215.86C288.931 215.157 290.673 214.21 290.984 212.933Z" fill="#2BC1B2"/>
</g>
<path d="M256 0.628906H118C115.239 0.628906 113 2.86748 113 5.6289V220.629H261V5.62891C261 2.86748 258.761 0.628906 256 0.628906Z" fill="#7D4E24"/>
<path d="M118.649 12.3984C118.649 9.63701 120.887 7.39844 123.649 7.39844H250.351C253.113 7.39844 255.351 9.63701 255.351 12.3984V220.629H118.649V12.3984Z" fill="#A1623F"/>
<path d="M249.294 98.7832H235.317C233.557 98.7832 232.131 100.202 232.131 101.951V134.408C232.131 136.158 233.557 137.577 235.317 137.577H249.294C251.054 137.577 252.48 136.158 252.48 134.408V101.951C252.48 100.202 251.054 98.7832 249.294 98.7832Z" fill="#CA9E67"/>
<path d="M239.903 123.602C234.068 117.193 247.401 115.518 246.698 121.239L245.853 123.891L247.144 131.705H239.398C239.681 128.635 239.903 123.602 239.903 123.602Z" fill="#575756"/>
<path d="M245.311 106.04H224.284C223.347 106.04 222.588 106.795 222.588 107.727V110.075C222.588 111.006 223.347 111.762 224.284 111.762H245.311C246.248 111.762 247.008 111.006 247.008 110.075V107.727C247.008 106.795 246.248 106.04 245.311 106.04Z" fill="#575756"/>
<path fill-rule="evenodd" clip-rule="evenodd" d="M158.835 39.242L187.271 23.4395C188.831 22.5726 190.735 22.6029 192.266 23.5189L218.582 39.2579L217.555 40.9744L191.24 25.2353C190.321 24.6857 189.178 24.6676 188.243 25.1877L159.806 40.9902L158.835 39.242Z" fill="#7D4E24"/>
<path d="M151.412 42.8594C151.412 40.0979 153.651 37.8594 156.412 37.8594H222.107C224.868 37.8594 227.107 40.098 227.107 42.8594V63.3209C227.107 66.0823 224.868 68.3209 222.107 68.3209H156.412C153.651 68.3209 151.412 66.0823 151.412 63.3209V42.8594Z" fill="#4FCFCF"/>
<path fill-rule="evenodd" clip-rule="evenodd" d="M222.107 39.8594H156.412C154.755 39.8594 153.412 41.2025 153.412 42.8594V63.3209C153.412 64.9778 154.755 66.3209 156.412 66.3209H222.107C223.764 66.3209 225.107 64.9778 225.107 63.3209V42.8594C225.107 41.2025 223.764 39.8594 222.107 39.8594ZM156.412 37.8594C153.651 37.8594 151.412 40.0979 151.412 42.8594V63.3209C151.412 66.0823 153.651 68.3209 156.412 68.3209H222.107C224.868 68.3209 227.107 66.0823 227.107 63.3209V42.8594C227.107 40.098 224.868 37.8594 222.107 37.8594H156.412Z" fill="#7D4E24"/>
<path d="M183.446 48.1611V56.5011H182.078V50.7891L179.534 56.5011H178.586L176.03 50.7891V56.5011H174.662V48.1611H176.138L179.066 54.7011L181.982 48.1611H183.446Z" fill="#3E3E3E"/>
<path d="M184.788 53.1651C184.788 52.5011 184.924 51.9131 185.196 51.4011C185.476 50.8891 185.852 50.4931 186.324 50.2131C186.804 49.9251 187.332 49.7811 187.908 49.7811C188.428 49.7811 188.88 49.8851 189.264 50.0931C189.656 50.2931 189.968 50.5451 190.2 50.8491V49.8891H191.58V56.5011H190.2V55.5171C189.968 55.8291 189.652 56.0891 189.252 56.2971C188.852 56.5051 188.396 56.6091 187.884 56.6091C187.316 56.6091 186.796 56.4651 186.324 56.1771C185.852 55.8811 185.476 55.4731 185.196 54.9531C184.924 54.4251 184.788 53.8291 184.788 53.1651ZM190.2 53.1891C190.2 52.7331 190.104 52.3371 189.912 52.0011C189.728 51.6651 189.484 51.4091 189.18 51.2331C188.876 51.0571 188.548 50.9691 188.196 50.9691C187.844 50.9691 187.516 51.0571 187.212 51.2331C186.908 51.4011 186.66 51.6531 186.468 51.9891C186.284 52.3171 186.192 52.7091 186.192 53.1651C186.192 53.6211 186.284 54.0211 186.468 54.3651C186.66 54.7091 186.908 54.9731 187.212 55.1571C187.524 55.3331 187.852 55.4211 188.196 55.4211C188.548 55.4211 188.876 55.3331 189.18 55.1571C189.484 54.9811 189.728 54.7251 189.912 54.3891C190.104 54.0451 190.2 53.6451 190.2 53.1891Z" fill="#3E3E3E"/>
<path d="M194.973 51.0051V54.6651C194.973 54.9131 195.029 55.0931 195.141 55.2051C195.261 55.3091 195.461 55.3611 195.741 55.3611H196.581V56.5011H195.501C194.885 56.5011 194.413 56.3571 194.085 56.0691C193.757 55.7811 193.593 55.3131 193.593 54.6651V51.0051H192.813V49.8891H193.593V48.2451H194.973V49.8891H196.581V51.0051H194.973Z" fill="#3E3E3E"/>
<path d="M201.261 49.7811C201.765 49.7811 202.213 49.8891 202.605 50.1051C203.005 50.3211 203.317 50.6411 203.541 51.0651C203.773 51.4891 203.889 52.0011 203.889 52.6011V56.5011H202.533V52.8051C202.533 52.2131 202.385 51.7611 202.089 51.4491C201.793 51.1291 201.389 50.9691 200.877 50.9691C200.365 50.9691 199.957 51.1291 199.653 51.4491C199.357 51.7611 199.209 52.2131 199.209 52.8051V56.5011H197.841V47.6211H199.209V50.6571C199.441 50.3771 199.733 50.1611 200.085 50.0091C200.445 49.8571 200.837 49.7811 201.261 49.7811Z" fill="#3E3E3E"/>
<path d="M154.375 174.312C153.582 174.312 152.868 174.176 152.233 173.904C151.598 173.62 151.1 173.224 150.737 172.714C150.374 172.204 150.193 171.609 150.193 170.929H152.267C152.312 171.439 152.511 171.858 152.862 172.187C153.225 172.515 153.729 172.68 154.375 172.68C155.044 172.68 155.565 172.521 155.939 172.204C156.313 171.875 156.5 171.456 156.5 170.946C156.5 170.549 156.381 170.226 156.143 169.977C155.916 169.727 155.627 169.535 155.276 169.399C154.936 169.263 154.46 169.115 153.848 168.957C153.077 168.753 152.448 168.549 151.961 168.345C151.485 168.129 151.077 167.801 150.737 167.359C150.397 166.917 150.227 166.327 150.227 165.591C150.227 164.911 150.397 164.316 150.737 163.806C151.077 163.296 151.553 162.905 152.165 162.633C152.777 162.361 153.485 162.225 154.29 162.225C155.435 162.225 156.37 162.514 157.095 163.092C157.832 163.658 158.24 164.44 158.319 165.438H156.177C156.143 165.007 155.939 164.639 155.565 164.333C155.191 164.027 154.698 163.874 154.086 163.874C153.531 163.874 153.077 164.015 152.726 164.299C152.375 164.582 152.199 164.99 152.199 165.523C152.199 165.885 152.307 166.186 152.522 166.424C152.749 166.65 153.032 166.832 153.372 166.968C153.712 167.104 154.177 167.251 154.766 167.41C155.548 167.625 156.183 167.84 156.67 168.056C157.169 168.271 157.588 168.605 157.928 169.059C158.279 169.501 158.455 170.096 158.455 170.844C158.455 171.444 158.291 172.011 157.962 172.544C157.645 173.076 157.174 173.507 156.551 173.836C155.939 174.153 155.214 174.312 154.375 174.312Z" fill="white"/>
<path d="M163.003 166.407V171.592C163.003 171.943 163.082 172.198 163.241 172.357C163.411 172.504 163.694 172.578 164.091 172.578H165.281V174.193H163.751C162.878 174.193 162.209 173.989 161.745 173.581C161.28 173.173 161.048 172.51 161.048 171.592V166.407H159.943V164.826H161.048V162.497H163.003V164.826H165.281V166.407H163.003Z" fill="white"/>
<path d="M166.421 169.467C166.421 168.526 166.614 167.693 166.999 166.968C167.396 166.242 167.928 165.681 168.597 165.285C169.277 164.877 170.025 164.673 170.841 164.673C171.578 164.673 172.218 164.82 172.762 165.115C173.317 165.398 173.759 165.755 174.088 166.186V164.826H176.043V174.193H174.088V172.799C173.759 173.241 173.312 173.609 172.745 173.904C172.178 174.198 171.532 174.346 170.807 174.346C170.002 174.346 169.266 174.142 168.597 173.734C167.928 173.314 167.396 172.736 166.999 172C166.614 171.252 166.421 170.407 166.421 169.467ZM174.088 169.501C174.088 168.855 173.952 168.294 173.68 167.818C173.419 167.342 173.074 166.979 172.643 166.73C172.212 166.48 171.748 166.356 171.249 166.356C170.75 166.356 170.286 166.48 169.855 166.73C169.424 166.968 169.073 167.325 168.801 167.801C168.54 168.265 168.41 168.821 168.41 169.467C168.41 170.113 168.54 170.679 168.801 171.167C169.073 171.654 169.424 172.028 169.855 172.289C170.297 172.538 170.762 172.663 171.249 172.663C171.748 172.663 172.212 172.538 172.643 172.289C173.074 172.039 173.419 171.677 173.68 171.201C173.952 170.713 174.088 170.147 174.088 169.501Z" fill="white"/>
<path d="M180.526 166.186C180.81 165.71 181.184 165.341 181.648 165.081C182.124 164.809 182.685 164.673 183.331 164.673V166.679H182.838C182.079 166.679 181.501 166.871 181.104 167.257C180.719 167.642 180.526 168.311 180.526 169.263V174.193H178.588V164.826H180.526V166.186Z" fill="white"/>
<path d="M187.374 166.407V171.592C187.374 171.943 187.453 172.198 187.612 172.357C187.782 172.504 188.065 172.578 188.462 172.578H189.652V174.193H188.122C187.249 174.193 186.581 173.989 186.116 173.581C185.651 173.173 185.419 172.51 185.419 171.592V166.407H184.314V164.826H185.419V162.497H187.374V164.826H189.652V166.407H187.374Z" fill="white"/>
<path d="M194.838 174.346C194.101 174.346 193.438 174.215 192.849 173.955C192.271 173.683 191.812 173.32 191.472 172.867C191.132 172.402 190.951 171.886 190.928 171.32H192.934C192.968 171.716 193.155 172.051 193.495 172.323C193.846 172.583 194.283 172.714 194.804 172.714C195.348 172.714 195.767 172.612 196.062 172.408C196.368 172.192 196.521 171.92 196.521 171.592C196.521 171.24 196.351 170.98 196.011 170.81C195.682 170.64 195.155 170.453 194.43 170.249C193.727 170.056 193.155 169.869 192.713 169.688C192.271 169.506 191.886 169.229 191.557 168.855C191.24 168.481 191.081 167.988 191.081 167.376C191.081 166.877 191.228 166.424 191.523 166.016C191.818 165.596 192.237 165.268 192.781 165.03C193.336 164.792 193.971 164.673 194.685 164.673C195.75 164.673 196.606 164.945 197.252 165.489C197.909 166.021 198.261 166.752 198.306 167.682H196.368C196.334 167.262 196.164 166.928 195.858 166.679C195.552 166.429 195.138 166.305 194.617 166.305C194.107 166.305 193.716 166.401 193.444 166.594C193.172 166.786 193.036 167.041 193.036 167.359C193.036 167.608 193.127 167.818 193.308 167.988C193.489 168.158 193.71 168.294 193.971 168.396C194.232 168.486 194.617 168.605 195.127 168.753C195.807 168.934 196.362 169.121 196.793 169.314C197.235 169.495 197.615 169.767 197.932 170.13C198.249 170.492 198.414 170.974 198.425 171.575C198.425 172.107 198.278 172.583 197.983 173.003C197.688 173.422 197.269 173.751 196.725 173.989C196.192 174.227 195.563 174.346 194.838 174.346Z" fill="white"/>
<path d="M204.289 169.467C204.289 168.526 204.482 167.693 204.867 166.968C205.264 166.242 205.796 165.681 206.465 165.285C207.145 164.877 207.893 164.673 208.709 164.673C209.446 164.673 210.086 164.82 210.63 165.115C211.185 165.398 211.627 165.755 211.956 166.186V164.826H213.911V174.193H211.956V172.799C211.627 173.241 211.18 173.609 210.613 173.904C210.046 174.198 209.4 174.346 208.675 174.346C207.87 174.346 207.134 174.142 206.465 173.734C205.796 173.314 205.264 172.736 204.867 172C204.482 171.252 204.289 170.407 204.289 169.467ZM211.956 169.501C211.956 168.855 211.82 168.294 211.548 167.818C211.287 167.342 210.942 166.979 210.511 166.73C210.08 166.48 209.616 166.356 209.117 166.356C208.618 166.356 208.154 166.48 207.723 166.73C207.292 166.968 206.941 167.325 206.669 167.801C206.408 168.265 206.278 168.821 206.278 169.467C206.278 170.113 206.408 170.679 206.669 171.167C206.941 171.654 207.292 172.028 207.723 172.289C208.165 172.538 208.63 172.663 209.117 172.663C209.616 172.663 210.08 172.538 210.511 172.289C210.942 172.039 211.287 171.677 211.548 171.201C211.82 170.713 211.956 170.147 211.956 169.501Z" fill="white"/>
<path d="M218.718 166.407V171.592C218.718 171.943 218.797 172.198 218.956 172.357C219.126 172.504 219.409 172.578 219.806 172.578H220.996V174.193H219.466C218.593 174.193 217.924 173.989 217.46 173.581C216.995 173.173 216.763 172.51 216.763 171.592V166.407H215.658V164.826H216.763V162.497H218.718V164.826H220.996V166.407H218.718Z" fill="white"/>
<path d="M152.612 189.568V187.8H156.148V200.193H154.193V189.568H152.612Z" fill="white"/>
<path d="M158.555 189.568V187.8H162.091V200.193H160.136V189.568H158.555Z" fill="white"/>
<path d="M165.79 200.312C165.439 200.312 165.144 200.193 164.906 199.955C164.668 199.717 164.549 199.422 164.549 199.071C164.549 198.719 164.668 198.425 164.906 198.187C165.144 197.949 165.439 197.83 165.79 197.83C166.13 197.83 166.419 197.949 166.657 198.187C166.895 198.425 167.014 198.719 167.014 199.071C167.014 199.422 166.895 199.717 166.657 199.955C166.419 200.193 166.13 200.312 165.79 200.312ZM165.79 193.172C165.439 193.172 165.144 193.053 164.906 192.815C164.668 192.577 164.549 192.282 164.549 191.931C164.549 191.579 164.668 191.285 164.906 191.047C165.144 190.809 165.439 190.69 165.79 190.69C166.13 190.69 166.419 190.809 166.657 191.047C166.895 191.285 167.014 191.579 167.014 191.931C167.014 192.282 166.895 192.577 166.657 192.815C166.419 193.053 166.13 193.172 165.79 193.172Z" fill="white"/>
<path d="M168.92 193.835C168.92 191.874 169.249 190.344 169.906 189.245C170.575 188.134 171.72 187.579 173.34 187.579C174.961 187.579 176.1 188.134 176.757 189.245C177.426 190.344 177.76 191.874 177.76 193.835C177.76 195.818 177.426 197.371 176.757 198.493C176.1 199.603 174.961 200.159 173.34 200.159C171.72 200.159 170.575 199.603 169.906 198.493C169.249 197.371 168.92 195.818 168.92 193.835ZM175.856 193.835C175.856 192.917 175.794 192.14 175.669 191.506C175.556 190.871 175.318 190.355 174.955 189.959C174.593 189.551 174.054 189.347 173.34 189.347C172.626 189.347 172.088 189.551 171.725 189.959C171.363 190.355 171.119 190.871 170.994 191.506C170.881 192.14 170.824 192.917 170.824 193.835C170.824 194.787 170.881 195.586 170.994 196.232C171.108 196.878 171.346 197.399 171.708 197.796C172.082 198.192 172.626 198.391 173.34 198.391C174.054 198.391 174.593 198.192 174.955 197.796C175.329 197.399 175.573 196.878 175.686 196.232C175.8 195.586 175.856 194.787 175.856 193.835Z" fill="white"/>
<path d="M179.811 193.835C179.811 191.874 180.14 190.344 180.797 189.245C181.466 188.134 182.61 187.579 184.231 187.579C185.852 187.579 186.991 188.134 187.648 189.245C188.317 190.344 188.651 191.874 188.651 193.835C188.651 195.818 188.317 197.371 187.648 198.493C186.991 199.603 185.852 200.159 184.231 200.159C182.61 200.159 181.466 199.603 180.797 198.493C180.14 197.371 179.811 195.818 179.811 193.835ZM186.747 193.835C186.747 192.917 186.685 192.14 186.56 191.506C186.447 190.871 186.209 190.355 185.846 189.959C185.483 189.551 184.945 189.347 184.231 189.347C183.517 189.347 182.979 189.551 182.616 189.959C182.253 190.355 182.01 190.871 181.885 191.506C181.772 192.14 181.715 192.917 181.715 193.835C181.715 194.787 181.772 195.586 181.885 196.232C181.998 196.878 182.236 197.399 182.599 197.796C182.973 198.192 183.517 198.391 184.231 198.391C184.945 198.391 185.483 198.192 185.846 197.796C186.22 197.399 186.464 196.878 186.577 196.232C186.69 195.586 186.747 194.787 186.747 193.835Z" fill="white"/>
<path d="M194.727 195.467C194.727 194.526 194.919 193.693 195.305 192.968C195.701 192.242 196.234 191.681 196.903 191.285C197.583 190.877 198.331 190.673 199.147 190.673C199.883 190.673 200.524 190.82 201.068 191.115C201.623 191.398 202.065 191.755 202.394 192.186V190.826H204.349V200.193H202.394V198.799C202.065 199.241 201.617 199.609 201.051 199.904C200.484 200.198 199.838 200.346 199.113 200.346C198.308 200.346 197.571 200.142 196.903 199.734C196.234 199.314 195.701 198.736 195.305 198C194.919 197.252 194.727 196.407 194.727 195.467ZM202.394 195.501C202.394 194.855 202.258 194.294 201.986 193.818C201.725 193.342 201.379 192.979 200.949 192.73C200.518 192.48 200.053 192.356 199.555 192.356C199.056 192.356 198.591 192.48 198.161 192.73C197.73 192.968 197.379 193.325 197.107 193.801C196.846 194.265 196.716 194.821 196.716 195.467C196.716 196.113 196.846 196.679 197.107 197.167C197.379 197.654 197.73 198.028 198.161 198.289C198.603 198.538 199.067 198.663 199.555 198.663C200.053 198.663 200.518 198.538 200.949 198.289C201.379 198.039 201.725 197.677 201.986 197.201C202.258 196.713 202.394 196.147 202.394 195.501Z" fill="white"/>
<path d="M218.233 190.673C218.97 190.673 219.627 190.826 220.205 191.132C220.794 191.438 221.253 191.891 221.582 192.492C221.922 193.092 222.092 193.818 222.092 194.668V200.193H220.171V194.957C220.171 194.118 219.961 193.478 219.542 193.036C219.123 192.582 218.55 192.356 217.825 192.356C217.1 192.356 216.522 192.582 216.091 193.036C215.672 193.478 215.462 194.118 215.462 194.957V200.193H213.541V194.957C213.541 194.118 213.331 193.478 212.912 193.036C212.493 192.582 211.92 192.356 211.195 192.356C210.47 192.356 209.892 192.582 209.461 193.036C209.042 193.478 208.832 194.118 208.832 194.957V200.193H206.894V190.826H208.832V191.897C209.149 191.511 209.552 191.211 210.039 190.996C210.526 190.78 211.048 190.673 211.603 190.673C212.351 190.673 213.02 190.831 213.609 191.149C214.198 191.466 214.652 191.925 214.969 192.526C215.252 191.959 215.694 191.511 216.295 191.183C216.896 190.843 217.542 190.673 218.233 190.673Z" fill="white"/>
<path d="M68.4458 213.444C68.453 211.711 67.5377 209.54 67.196 207.858C66.6012 212.244 61.5577 212.931 63.378 211.43C65.6563 209.55 66.0208 208.147 65.9526 207.368C65.8693 206.389 65.1342 204.844 64.3573 203.904C63.5804 202.964 62.5448 202.37 61.5282 201.795C61.5702 202.602 61.6462 203.223 61.1995 204.052C60.8304 204.738 60.1775 205.121 60.5062 204.314C61.5607 201.719 59.0555 199.811 58.0208 199.457C57.7117 199.352 57.1248 199.049 56.3736 198.289C56.2867 198.202 56.2028 198.167 56.1867 198.298C56.0011 199.9 55.5182 200.223 55.2284 201.665C54.6491 204.57 57.3534 205.757 56.3183 205.573C55.4683 205.423 54.9614 204.491 54.334 203.57C53.6452 205.524 51.4772 209.073 51.213 209.662C50.6834 210.84 50.9231 212.091 54.2425 213.117C55.7837 213.597 57.2588 212.932 56.5623 213.962C56.2197 214.464 51.2376 215.141 50.5681 211.429C50.4908 210.998 49.1336 216.515 53.1604 220.423C56.3507 223.527 60.9056 223.563 64.9908 220.976C67.5038 219.386 68.4331 216.692 68.4458 213.444Z" fill="#A6CE28"/>
<path d="M321.215 222.712C322.53 221.583 323.571 219.47 324.618 218.11C320.914 220.533 317.092 217.171 319.419 217.564C322.331 218.055 323.63 217.412 324.174 216.85C324.859 216.146 325.546 214.578 325.748 213.376C325.949 212.173 325.72 211.001 325.489 209.856C324.907 210.416 324.487 210.881 323.568 211.086C322.808 211.256 322.091 211.014 322.916 210.733C325.568 209.831 325.369 206.688 324.959 205.675C324.837 205.372 324.681 204.73 324.763 203.665C324.773 203.542 324.744 203.456 324.634 203.53C323.302 204.438 322.742 204.284 321.462 205.01C318.887 206.475 319.761 209.295 319.222 208.393C318.779 207.652 319.152 206.659 319.437 205.581C317.509 206.34 313.407 207.025 312.789 207.212C311.552 207.583 310.763 208.583 312.161 211.764C312.808 213.243 314.276 213.923 313.042 214.07C312.438 214.14 308.664 210.818 311.031 207.881C311.306 207.541 306.248 210.127 305.931 215.73C305.674 220.174 308.63 223.64 313.26 225.034C316.107 225.892 318.752 224.83 321.215 222.712Z" fill="#A6CE28"/>
<g clip-path="url(#clip1)">
<path d="M112.984 212.487C113.012 212.393 113.015 212.294 112.991 212.199C112.968 212.104 112.919 212.017 112.85 211.948C111.778 211.005 110.396 211.819 109.175 212.293C108.106 212.71 107.065 213.194 106.056 213.742C108.296 211.269 110.525 208.737 112.132 205.838C112.309 205.52 112.089 204.992 111.677 205.041C107.798 205.477 104.712 209.065 102.424 212.455C103.104 208.053 103.008 203.602 102.847 199.141C102.847 198.78 102.392 198.419 102.049 198.678C97.7625 201.959 97.5643 207.401 97.5535 212.476C96.4649 210.002 95.114 207.654 93.5245 205.472C92.5601 204.125 91.5422 202.821 90.5028 201.533C89.967 200.87 89.1687 199.308 88.2204 199.157C88.1268 199.129 88.0275 199.127 87.9331 199.152C87.8386 199.177 87.7528 199.227 87.6846 199.297C85.9915 201.409 88.724 206.151 89.5758 208.171C90.792 211.07 92.5494 213.247 94.5371 215.461C90.6889 213.811 86.7172 212.469 82.659 211.447C82.5691 211.424 82.4748 211.424 82.3852 211.449C82.2956 211.473 82.2139 211.52 82.148 211.586C82.0821 211.652 82.0342 211.734 82.0092 211.824C81.9842 211.913 81.9829 212.008 82.0053 212.099C82.8143 214.356 84.9682 216.005 87.0202 217.099C88.4345 217.777 89.9491 218.219 91.5047 218.408C91.2154 218.408 90.926 218.457 90.6367 218.494C88.4936 218.769 85.204 219.335 83.5431 220.854C81.4589 222.762 85.2254 223.521 86.597 223.586C88.7571 223.643 90.9161 223.435 93.0263 222.966C95.598 222.395 98.1644 220.854 100.8 221.495C102.906 222.002 104.599 222.449 106.806 222.438C108.323 222.438 110.434 222.745 111.832 222.11C111.911 222.062 111.977 221.996 112.023 221.915C112.069 221.835 112.094 221.744 112.095 221.652C111.88 218.845 108.789 218.106 106.239 217.966C107.48 217.228 108.677 216.417 109.823 215.536C110.862 214.804 112.662 213.818 112.984 212.487Z" fill="#2BC1B2"/>
</g>
<defs>
<clipPath id="clip0">
<rect width="30" height="24" fill="white" transform="translate(261 199.629)"/>
</clipPath>
<clipPath id="clip1">
<rect width="31" height="25" fill="white" transform="translate(82 198.629)"/>
</clipPath>
</defs>
</svg>
