<svg width="162" height="142" viewBox="0 0 162 142" fill="none" xmlns="http://www.w3.org/2000/svg">
<path d="M86.1528 4.97896C84.7086 4.97892 83.2735 5.2076 81.9009 5.65651C80.8268 3.75778 79.2142 2.21985 77.2667 1.23689C75.3192 0.253938 73.1242 -0.129973 70.9587 0.133635C68.7932 0.397242 66.7544 1.29655 65.0996 2.71801C63.4448 4.13947 62.2483 6.01935 61.6611 8.12031C60.2494 7.54903 58.7224 7.32089 57.2054 7.45463C55.6885 7.58837 54.2249 8.08017 52.935 8.88963C51.6451 9.69908 50.5657 10.8031 49.7855 12.1109C49.0053 13.4187 48.5465 14.893 48.447 16.4126C47.3582 16.0737 46.2092 15.9738 45.0783 16.1197C43.9474 16.2656 42.8613 16.6538 41.8942 17.2578C40.927 17.8618 40.1017 18.6675 39.4744 19.6197C38.8471 20.5719 38.4327 21.6483 38.2595 22.7753C38.0862 23.9023 38.1583 25.0534 38.4706 26.1501C38.783 27.2467 39.3284 28.263 40.0694 29.1296C40.8105 29.9962 41.7299 30.6927 42.7648 31.1714C43.7997 31.6502 44.9257 31.9 46.0659 31.9037C46.0916 31.9053 46.1173 31.9053 46.1429 31.9037V31.948H87.1364V31.871C94.0659 31.4129 99.6326 25.5768 99.6326 18.4413C99.6295 14.8688 98.2078 11.4438 95.68 8.91926C93.1522 6.39474 89.7254 4.97743 86.1528 4.97896V4.97896Z" fill="#4FCFCF"/>
<path d="M22.531 39.7376C22.531 39.7376 19.7373 28.427 14.0087 22.7091C7.10305 15.8061 -2.09564 13.1961 0.42641 12.4691C2.68747 11.8166 10.5892 11.4331 18.7199 15.0764C24.6083 17.7156 35.9668 32.1581 38.3823 37.3354C40.7978 42.5126 43.216 48.7259 43.216 48.7259C43.216 48.7259 31.0345 42.3449 28.6377 40.2755C26.2408 38.2062 22.531 39.7376 22.531 39.7376Z" fill="#C478AC"/>
<path d="M86.3332 7.48047C86.3332 7.48047 76.1438 13.9254 70.2768 20.8284C64.4097 27.7314 63.0861 36.6478 62.7985 40.6186C62.3005 47.495 65.1554 54.0785 65.1554 54.0785C65.1554 54.0785 50.7156 46.0249 49.336 45.7959C47.9565 45.5669 44.6195 43.7239 45.5383 41.0767C46.4571 38.4295 48.878 34.2776 49.336 33.0232C49.7941 31.7688 55.7783 16.8017 57.8583 14.1544C59.9382 11.5072 72.354 8.40194 74.426 8.05572C76.498 7.7095 86.3332 7.48047 86.3332 7.48047Z" fill="#D8A9CB"/>
<path d="M4.34934 53.9561C2.39456 52.4674 8.63709 40.3179 12.0726 35.3643C15.5081 30.4108 29.8654 18.3358 31.3755 19.1588C32.6192 19.8352 28.0358 30.3202 27.5644 32.6798C27.0931 35.0394 27.0105 37.0714 30.6324 38.6614C33.7777 40.0436 39.7512 40.981 44.1162 36.7359C48.4812 32.4907 50.1324 27.4147 52.0179 22.5783C53.9035 17.7419 56.0287 12.1918 61.8105 9.48603C67.5923 6.78022 87.1721 6.06382 86.3466 7.48065C85.521 8.89747 74.3702 9.77632 71.6564 10.1279C68.9426 10.4794 61.6614 12.1066 58.4655 16.8018C55.6106 20.9777 52.8542 29.1005 52.1005 32.3709C51.4107 35.3643 50.5185 37.66 49.3388 38.957C48.159 40.254 46.9792 41.7906 47.8047 42.4964C48.6303 43.2021 52.0233 44.4911 56.0181 48.177C58.0421 50.0412 63.451 53.1305 65.9278 53.9561C68.4046 54.7817 71.5605 56.0201 70.9693 56.6193C70.378 57.2185 59.3204 52.4328 54.6039 51.0266C49.8874 49.6204 47.091 49.7669 44.9658 49.6497C42.8405 49.5325 37.911 49.189 33.6152 46.8108C30.2596 44.9465 28.0625 40.5283 25.7029 41.3539C23.3433 42.1795 6.46659 55.5833 4.34934 53.9561Z" fill="#D893C0"/>
<path d="M17.7186 36.4383C17.702 36.2651 17.6356 36.1005 17.5272 35.9644C17.4189 35.8284 17.2733 35.7267 17.1083 35.6718C16.9433 35.6169 16.7658 35.6112 16.5976 35.6553C16.4293 35.6994 16.2775 35.7914 16.1606 35.9202C16.0437 36.049 15.9667 36.2089 15.939 36.3807C15.9114 36.5524 15.9342 36.7284 16.0047 36.8874C16.0752 37.0464 16.1905 37.1815 16.3363 37.2762C16.4822 37.3709 16.6525 37.4212 16.8264 37.421C17.0746 37.4079 17.3076 37.2973 17.4747 37.1132C17.6418 36.9292 17.7294 36.6866 17.7186 36.4383Z" fill="#3C2415"/>
<path d="M11.6545 50.736C12.0194 50.0196 12.259 49.2127 12.1871 48.6055C13.7318 48.4457 15.0261 47.2153 15.6839 46.1633C15.7159 46.1154 15.7452 46.0648 15.7771 46.0088C16.3098 45.0634 16.8264 43.3163 16.3577 42.1871C16.3449 42.1581 16.3263 42.132 16.303 42.1104C16.2797 42.0889 16.2522 42.0723 16.2222 42.0618C16.1922 42.0513 16.1604 42.0471 16.1288 42.0494C16.0971 42.0518 16.0662 42.0606 16.0381 42.0753C15.9799 42.1031 15.9338 42.1511 15.9083 42.2104C15.8829 42.2697 15.8798 42.3362 15.8996 42.3975C16.3124 43.3936 15.7984 45.0927 15.2685 45.9369C14.6426 46.9356 13.4042 48.1101 11.9474 48.1421H11.6811V48.4084C11.8143 49.6601 11.1272 50.7653 10.6158 51.3725C10.9585 51.1719 11.3047 50.9597 11.6545 50.736Z" fill="#C478AC"/>
<path d="M119.81 100.163C115.462 100.324 115.412 105 115.065 107.136C114.719 109.272 115.737 112.674 114.616 115.886C113.495 119.098 110.854 123.134 112.567 126.434C113.336 127.917 116.133 127.8 119.036 127.755C122.137 127.694 125.364 127.573 126.575 125.278C128.187 122.222 125.518 118.524 126.03 112.571C126.517 106.729 127.944 99.864 119.81 100.163Z" fill="#8AB044"/>
<path d="M96.8862 102.331C92.3923 104.181 91.3561 105.526 91.1023 106.682C90.8485 107.837 92.2469 110.631 91.5253 113.132C90.8036 115.632 86.7538 122.249 88.5778 125.82C89.2255 127.084 91.8874 127.473 94.6313 127.457C98.245 127.438 102.091 126.46 102.527 123.227C103.22 118.099 102.176 114.197 102.742 111.067C103.307 107.937 104.637 103.277 102.057 102.563C100.367 102.136 98.6077 102.057 96.8862 102.331Z" fill="#8AB044"/>
<path d="M85.8022 106.243C85.982 106.772 88.2977 114.515 102.128 115.799C122.676 117.713 129.208 109.748 129.208 109.748L85.8022 106.243Z" fill="#FFDE17"/>
<path d="M72.5796 65.8639C71.1468 64.5897 70.0789 62.2476 70.7291 60.0483C71.7654 56.5457 75.5085 55.8689 77.0417 52.9611C78.6278 49.9634 82.5507 46.0405 88.673 47.3067C93.2938 48.261 95.0173 52.0861 95.6835 57.0215C96.1197 60.2386 96.9629 70.5878 98.549 78.5261C99.5324 83.4456 100.621 87.1279 102.929 88.1642C106.738 89.8692 110.677 86.9032 114.479 86.0124C119.575 84.8175 124.833 86.0124 128.489 90.6332C132.145 95.254 135.243 97.3264 138.761 96.4488C142.904 95.4152 145.502 91.1619 146.647 88.9625C147.604 87.1306 147.842 85.14 148.719 86.097C149.248 86.668 149.512 89.367 148.479 92.7057C147.656 95.4228 146.264 97.9334 144.395 100.07C139.335 105.844 128.944 112.177 115.243 113.452C101.541 114.726 90.156 112.616 86.4525 107.358C82.2732 101.426 83.7324 93.2476 84.5386 87.8443C86.2119 76.6545 85.3317 64.9069 84.7792 65.2268C84.2267 65.5467 76.1641 69.0493 72.5796 65.8639Z" fill="#A4CF63"/>
<path d="M109.139 92.0668C108.139 94.5094 112.718 97.7424 117.021 96.1299C121.484 94.4565 120.128 89.4392 117.021 88.7281C113.915 88.0171 109.948 90.0842 109.139 92.0668Z" fill="#72A341"/>
<path d="M86.0639 55.8223C86.0515 55.6682 85.9943 55.5211 85.8995 55.399C85.8046 55.277 85.6761 55.1853 85.5298 55.1354C85.3835 55.0854 85.2258 55.0792 85.076 55.1177C84.9263 55.1562 84.7911 55.2376 84.687 55.3519C84.5829 55.4662 84.5145 55.6085 84.4902 55.7611C84.4659 55.9138 84.4868 56.0703 84.5502 56.2112C84.6136 56.3522 84.7169 56.4716 84.8473 56.5546C84.9777 56.6377 85.1295 56.6809 85.2841 56.6788C85.5008 56.6678 85.7043 56.5716 85.8504 56.4112C85.9965 56.2508 86.0732 56.0391 86.0639 55.8223V55.8223Z" fill="#3C2415"/>
<path d="M79.6297 54.3155C79.6174 54.162 79.5606 54.0154 79.4663 53.8935C79.372 53.7717 79.2443 53.68 79.0987 53.6296C78.9532 53.5792 78.7961 53.5723 78.6467 53.6097C78.4972 53.6471 78.3619 53.7272 78.2573 53.8402C78.1526 53.9532 78.0832 54.0943 78.0573 54.2461C78.0315 54.398 78.0505 54.5541 78.112 54.6953C78.1734 54.8366 78.2747 54.9569 78.4034 55.0415C78.5321 55.1262 78.6826 55.1715 78.8366 55.172C78.9451 55.1683 79.0517 55.1431 79.1504 55.098C79.2491 55.0528 79.3378 54.9886 79.4115 54.9089C79.4853 54.8293 79.5425 54.7359 79.5799 54.634C79.6174 54.5322 79.6343 54.4239 79.6297 54.3155V54.3155Z" fill="#3C2415"/>
<path d="M78.8525 64.7354C80.087 64.2543 80.8959 63.3 81.0149 62.1766C81.019 62.151 81.0178 62.1249 81.0115 62.0998C81.0052 62.0747 80.9938 62.0512 80.9781 62.0307C80.9623 62.0101 80.9426 61.993 80.92 61.9804C80.8975 61.9677 80.8725 61.9598 80.8468 61.9571C80.8211 61.9544 80.7951 61.957 80.7704 61.9647C80.7457 61.9724 80.7228 61.985 80.7031 62.0018C80.6835 62.0187 80.6675 62.0393 80.6561 62.0625C80.6447 62.0858 80.6381 62.1111 80.6369 62.1369C80.5338 63.115 79.8147 63.9556 78.7151 64.3839C77.5678 64.8306 76.3095 64.7064 75.5905 64.0693L75.3023 63.8182L75.2759 64.1988C75.2257 64.8967 74.5119 65.4307 73.8246 65.6527C73.3333 65.8375 72.7887 65.8204 72.3099 65.6051C72.3972 65.695 72.4897 65.7823 72.5743 65.8695C72.6589 65.9567 72.8148 66.0704 72.9417 66.1603H73.0554C73.3546 66.1576 73.6515 66.1086 73.9357 66.0149C74.6415 65.7875 75.3737 65.2615 75.5878 64.553C76.4337 65.1055 77.7 65.1848 78.8525 64.7354Z" fill="#6D923D"/>
<path d="M122.758 93.4709C122.134 94.9036 123.622 97.1717 126.046 95.6623C129.026 93.8119 127.828 91.2768 126.596 91.0045C125.364 90.7322 123.443 91.8954 122.758 93.4709Z" fill="#72A341"/>
<path d="M101.483 94.6334C100.899 95.1885 100.558 96.9966 101.999 97.8188C103.439 98.6409 108.576 98.744 107.857 96.5869C107.138 94.4298 103.537 92.6825 101.483 94.6334Z" fill="#72A341"/>
<path d="M113.715 100.185C114.124 98.847 116.755 98.0963 119.057 97.8187C121.626 97.5121 124.915 98.3342 125.121 99.7722C125.327 101.21 122.758 102.651 119.982 102.958C117.207 103.264 112.937 102.746 113.715 100.185Z" fill="#72A341"/>
<path d="M124.429 103.894C120.096 104.277 120.286 108.951 120.048 111.103C119.81 113.255 121.005 116.599 120.048 119.863C119.091 123.128 116.665 127.294 118.544 130.503C119.387 131.944 122.174 131.685 125.071 131.481C128.164 131.262 131.384 130.976 132.473 128.624C133.927 125.489 131.074 121.93 131.278 115.961C131.479 110.106 132.552 103.178 124.429 103.894Z" fill="#A4CF63"/>
<path d="M128.41 127.488C127.032 127.488 125.919 128.892 125.819 130.441C125.798 130.77 125.827 131.099 125.906 131.419C127.709 131.274 129.485 131.044 130.791 130.341C130.696 128.979 129.951 127.488 128.41 127.488Z" fill="#72A341"/>
<path d="M125.071 131.48L125.515 131.448V131.303C125.568 129.511 124.294 128.131 122.93 128.176C121.566 128.221 120.527 129.926 120.58 131.47C120.58 131.499 120.58 131.528 120.58 131.56C121.822 131.729 123.427 131.597 125.071 131.48Z" fill="#72A341"/>
<path d="M104.41 108.488C99.8443 110.175 98.7605 111.47 98.4617 112.617C98.163 113.764 99.4583 116.606 98.6389 119.078C97.8194 121.549 93.5264 128.007 95.2024 131.632C95.7998 132.919 98.4697 132.882 101.214 132.972C104.825 133.091 108.679 132.784 109.239 129.564C110.125 124.468 109.239 120.529 109.913 117.431C110.587 114.333 112.105 109.717 109.551 108.906C107.883 108.42 106.134 108.278 104.41 108.488Z" fill="#A4CF63"/>
<path d="M105.663 132.707C105.663 132.638 105.686 132.569 105.694 132.498C105.821 131.306 104.973 129.704 103.778 129.614C102.443 129.511 101.51 130.849 101.383 132.043C101.35 132.359 101.387 132.677 101.491 132.976C102.887 133.047 104.287 132.956 105.663 132.707V132.707Z" fill="#72A341"/>
<path d="M98.9482 129.615C97.7534 129.551 96.6114 130.786 96.4845 131.978C96.4653 132.17 96.4715 132.364 96.503 132.554C97.5604 132.871 99.0777 132.908 100.674 132.953C100.736 132.783 100.777 132.605 100.796 132.425C100.923 131.24 100.249 129.683 98.9482 129.615Z" fill="#72A341"/>
<path d="M146.753 115.419C146.922 113.933 145.113 112.477 143.769 113.137C145 112.33 147.015 110.62 147.541 109.243C148.14 107.676 146.775 105.517 145.017 106.209C146.188 105.362 147.846 102.319 147.398 100.666C147.129 99.6806 145.923 98.8837 145.097 99.4832C145.814 98.3322 146.963 96.4543 147.058 95.104C147.202 93.2652 146.13 91.7645 144.795 92.5495C145.589 90.8525 146.696 88.0876 144.732 86.9131C143.642 86.2592 142.863 86.8951 142.733 87.4223C142.874 86.3547 142.761 85.2687 142.401 84.2536C142.041 83.2386 141.446 82.3234 140.663 81.5834C140.401 81.3052 140.064 81.1094 139.693 81.02C138.612 80.8397 137.912 82.1598 137.812 83.2508C137.678 84.7584 137.986 86.2725 138.699 87.6074C138 86.5084 137.071 85.2824 135.773 85.3046C134.285 85.3351 133.63 86.5877 133.94 88.0403C134.273 89.6148 135.028 91.0692 136.123 92.2483C135.259 91.0387 133.169 90.6933 132.581 92.05C131.922 93.5606 133.047 95.7605 134.199 96.9395C132.568 96.7279 131.15 97.757 131.183 99.4045C131.215 101.052 132.376 103.102 133.851 103.829C132.657 102.991 130.781 104.208 130.671 105.662C130.5 107.874 132.027 110.132 134.398 111.6C132.396 110.944 130.375 114.837 132.872 117.254C134.565 118.957 136.367 120.547 138.267 122.016C138.414 122.153 146.348 119.002 146.753 115.419Z" fill="#24CCEA"/>
<path d="M139.86 90.3464C140.275 103.913 138.734 118.054 136.735 131.46C136.664 131.923 137.382 132.116 137.445 131.642C139.459 118.165 141.009 103.969 140.596 90.3342C140.585 90.2433 140.541 90.1598 140.472 90.0996C140.403 90.0394 140.314 90.007 140.223 90.0085C140.131 90.01 140.043 90.0454 139.976 90.1078C139.909 90.1702 139.868 90.2552 139.86 90.3464V90.3464Z" fill="#042B5B"/>
<path d="M141.532 110.892C142.179 109.996 142.948 109.194 143.815 108.507C144 108.36 143.738 108.102 143.558 108.248C142.666 108.956 141.876 109.785 141.213 110.711C141.082 110.906 141.393 111.082 141.532 110.892Z" fill="#042B5B"/>
<path d="M141.82 104.116C142.404 103.314 143.077 102.581 143.826 101.931C144.003 101.773 143.745 101.518 143.566 101.67C142.796 102.344 142.105 103.103 141.507 103.933C141.376 104.128 141.688 104.304 141.811 104.137L141.82 104.116Z" fill="#042B5B"/>
<path d="M135.962 108.445L137.67 111.057C137.797 111.256 138.116 111.073 137.985 110.871L136.281 108.261C136.153 108.062 135.835 108.245 135.962 108.445Z" fill="#042B5B"/>
<path d="M136.562 101.763C137.149 102.494 137.669 103.276 138.118 104.099C138.227 104.308 138.545 104.119 138.433 103.913C137.97 103.062 137.432 102.256 136.823 101.503C136.673 101.321 136.418 101.58 136.562 101.763V101.763Z" fill="#042B5B"/>
<path d="M136.916 94.3938C137.453 95.0853 137.984 95.778 138.517 96.467C138.664 96.6527 138.979 96.4668 138.836 96.2835L137.234 94.2103C137.093 94.0234 136.774 94.2068 136.916 94.3938Z" fill="#042B5B"/>
<path d="M143.199 93.7859L141.52 95.7979C141.367 95.978 141.629 96.2354 141.783 96.0553L143.459 94.0471C143.613 93.867 143.353 93.6059 143.199 93.7859Z" fill="#042B5B"/>
<path d="M69.9238 117.898C69.8577 117.484 69.6603 117.101 69.3606 116.807C69.061 116.514 68.6749 116.323 68.2592 116.265C66.377 116.003 64.8829 117.773 64.065 119.227C63.2786 120.643 62.8644 122.229 62.5734 123.825C62.1461 122.533 61.2627 119.956 61.1317 118.583C61.3152 116.884 64.7072 115.526 66.571 110.981C67.9813 107.536 65.7532 105.214 64.9012 105.09C63.0191 104.828 61.5249 106.598 60.707 108.053C60.0071 109.385 59.5248 110.822 59.2784 112.307C59.2208 112.302 59.1629 112.302 59.1054 112.307C58.8432 111.424 57.6479 109.279 58.2403 107.609C58.6073 106.577 70.3563 96.3376 62.1173 94.5786C60.2588 94.1802 56.9034 100.828 56.5495 102.461C55.4512 107.544 56.6282 96.1069 55.1078 92.9875C54.206 91.1525 52.9268 90.3268 52.2636 90.7593C51.9337 90.9696 51.6513 91.2462 51.4342 91.5716C51.2171 91.897 51.0702 92.264 51.0027 92.6493C50.6436 94.7464 50.9136 96.9117 51.4929 98.9406C52.1271 101.06 52.9921 103.104 54.0723 105.035C53.7735 104.773 53.4589 104.511 53.147 104.28C52.3292 103.676 51.4377 103.178 50.4941 102.799C49.5497 102.414 48.5578 102.158 47.5451 102.036C46.6328 101.929 45.4244 101.793 44.617 102.32C42.7427 103.541 44.984 106.333 46.0116 107.366C47.3539 108.694 49.009 109.663 50.8244 110.184C51.8515 110.493 52.9139 110.669 53.9858 110.708C54.3607 110.721 54.7591 110.708 55.1602 110.708C55.751 112.34 56.4698 113.923 57.3097 115.442C57.0109 115.18 56.6963 114.918 56.387 114.687C55.5678 114.083 54.6756 113.584 53.7315 113.204C52.7867 112.82 51.7949 112.564 50.7825 112.443C49.8729 112.336 48.6644 112.2 47.8544 112.726C45.9827 113.945 46.4153 115.657 48.0117 117.736C50.3447 120.769 58.1879 120.313 58.5444 120.313C59.1447 122.226 60.0543 125.249 60.6703 126.622C60.3715 126.36 60.0569 126.098 59.7476 125.87C58.9296 125.264 58.0372 124.765 57.0921 124.386C56.1474 124.002 55.1556 123.746 54.1431 123.623C53.2335 123.516 52.025 123.38 51.215 123.907C49.3434 125.128 51.582 127.92 52.6122 128.953C53.9535 130.283 55.6089 131.253 57.4251 131.773C58.4515 132.081 59.5129 132.258 60.5838 132.298C61.7425 132.332 63.1134 132.161 64.1253 132.845C64.4713 133.079 65.0664 132.929 65.0873 132.442C65.1805 130.246 65.6028 128.077 66.3404 126.006C66.7047 124.972 67.1427 123.966 67.651 122.994C68.136 122.077 68.7415 121.238 69.2553 120.342C69.6669 119.613 70.0548 118.75 69.9238 117.898Z" fill="#24CCEA"/>
<path d="M78.3912 125.199C78.5615 123.458 77.8475 121.183 77.661 119.466C76.6495 123.819 71.5137 124.034 73.486 122.697C75.9529 121.023 76.4531 119.648 76.4529 118.847C76.461 117.856 75.8679 116.234 75.1754 115.214C74.4829 114.195 73.5051 113.503 72.5257 112.824C72.4997 113.644 72.5095 114.272 71.982 115.063C71.5447 115.72 70.8551 116.04 71.2623 115.257C72.5656 112.748 70.2284 110.593 69.2212 110.141C68.9187 110.006 68.3584 109.649 67.6768 108.812C67.5982 108.715 67.5205 108.673 67.4856 108.803C67.1482 110.395 66.6297 110.676 66.2045 112.096C65.3473 114.963 67.9517 116.41 66.9321 116.127C66.0906 115.902 65.6693 114.91 65.1258 113.927C64.2505 115.821 61.7356 119.19 61.4132 119.758C60.7711 120.89 60.8924 122.171 64.1287 123.52C65.6332 124.146 67.1774 123.619 66.3798 124.588C65.9891 125.064 60.9178 125.268 60.5948 121.476C60.556 121.036 58.68 126.455 62.3513 130.76C65.2712 134.178 69.841 134.646 74.1888 132.432C76.8878 131.084 78.076 128.463 78.3912 125.199Z" fill="#A6CE28"/>
<path d="M82.6322 132.078C82.8865 131.91 83.0805 131.666 83.1857 131.381C83.2909 131.095 83.3017 130.783 83.2167 130.491C82.8281 129.165 81.2096 128.706 80.0054 128.6C78.8284 128.535 77.6487 128.666 76.5148 128.988C77.2437 128.317 78.6856 126.968 79.5494 126.467C80.7312 126.082 82.6419 127.919 86.2128 127.787C88.9135 127.691 89.7869 125.523 89.6103 124.923C89.2218 123.597 87.6033 123.141 86.3991 123.035C85.3088 122.968 84.2149 123.076 83.1589 123.356C83.1589 123.317 83.1268 123.279 83.1075 123.24C83.6149 122.807 84.6746 121.371 85.9559 121.265C86.7491 121.198 97.0348 125.909 95.7374 119.932C95.4452 118.584 90.0406 118.353 88.8557 118.606C85.1627 119.399 93.0817 116.757 94.6905 114.817C95.6539 113.671 95.7984 112.569 95.3167 112.27C95.0791 112.115 94.8115 112.01 94.5312 111.964C94.2508 111.917 93.9638 111.93 93.6886 112.001C92.1995 112.428 90.8248 113.183 89.6649 114.21C88.453 115.265 87.3601 116.45 86.4055 117.742C86.4954 117.463 86.566 117.18 86.627 116.907C86.7819 116.185 86.8445 115.446 86.8133 114.708C86.7864 113.967 86.6601 113.234 86.4376 112.527C86.2353 111.885 85.9655 111.053 85.3747 110.674C84.0067 109.801 82.8281 112.119 82.4524 113.109C81.9745 114.394 81.8287 115.779 82.0285 117.135C82.1323 117.908 82.3353 118.663 82.6322 119.383C82.735 119.634 82.8602 119.894 82.979 120.16C82.0764 121.039 81.2443 121.987 80.4903 122.996C80.5802 122.717 80.6509 122.434 80.7119 122.161C80.8667 121.439 80.9293 120.7 80.8981 119.961C80.8715 119.221 80.7452 118.488 80.5224 117.781C80.3201 117.139 80.0504 116.307 79.4563 115.928C78.0915 115.055 77.0896 115.854 76.1904 117.534C74.8834 119.984 77.5295 125.035 77.6355 125.273C76.5501 126.236 74.8224 127.749 74.1031 128.568C74.1898 128.288 74.2637 128.006 74.3247 127.729C74.4796 127.007 74.5422 126.268 74.5109 125.53C74.4832 124.79 74.3558 124.058 74.132 123.352C73.9297 122.71 73.6599 121.875 73.0691 121.5C71.7011 120.626 70.5257 122.941 70.15 123.931C69.671 125.217 69.5241 126.603 69.7229 127.961C69.828 128.733 70.0309 129.488 70.3266 130.209C70.6478 130.986 71.1744 131.843 71.0235 132.717C70.9721 133.015 71.2483 133.359 71.5758 133.234C73.0518 132.637 74.608 132.263 76.1936 132.122C76.9874 132.058 77.7847 132.049 78.5796 132.097C79.3342 132.142 80.0696 132.293 80.8275 132.363C81.4216 132.418 82.1088 132.418 82.6322 132.078Z" fill="#F56049"/>
<path d="M143.281 124.068C143.306 123.986 143.308 123.9 143.287 123.817C143.267 123.734 143.225 123.658 143.166 123.597C142.176 122.709 140.91 123.425 139.775 123.834C138.783 124.194 137.813 124.615 136.873 125.095C138.991 122.879 141.093 120.605 142.631 117.983C142.801 117.694 142.612 117.207 142.228 117.241C138.647 117.562 135.713 120.786 133.556 123.839C134.273 119.825 134.277 115.747 134.22 111.655C134.216 111.325 133.816 110.988 133.498 111.219C129.479 114.131 129.183 119.113 129.072 123.76C128.119 121.472 126.922 119.293 125.503 117.261C124.643 116.008 123.73 114.792 122.802 113.589C122.33 112.978 121.618 111.527 120.748 111.364C120.666 111.341 120.58 111.34 120.497 111.36C120.415 111.38 120.339 111.421 120.277 111.479C118.679 113.382 121.093 117.779 121.834 119.648C122.896 122.326 124.47 124.359 126.254 126.427C122.744 124.838 119.115 123.528 115.4 122.508C115.067 122.416 114.665 122.727 114.789 123.094C115.487 125.179 117.434 126.732 119.304 127.774C120.603 128.496 122.001 128.803 123.407 129.065C123.139 129.081 122.871 129.101 122.602 129.129C120.642 129.335 117.584 129.785 116.021 131.143C114.062 132.843 117.515 133.621 118.778 133.706C120.771 133.805 122.769 133.661 124.727 133.276C127.105 132.801 129.502 131.448 131.913 132.085C133.845 132.597 135.394 133.042 137.424 133.076C138.822 133.098 140.759 133.434 142.062 132.879C142.137 132.838 142.2 132.779 142.244 132.706C142.288 132.633 142.312 132.549 142.312 132.464C142.175 129.89 139.345 129.149 137.001 128.964C138.159 128.314 139.278 127.597 140.352 126.817C141.274 126.132 142.955 125.267 143.281 124.068Z" fill="#F4C916"/>
<path d="M122.046 123.786C121.865 122.177 120.781 120.26 120.283 118.735C120.204 122.872 115.594 124.054 117.122 122.464C119.036 120.472 119.224 119.131 119.076 118.415C118.894 117.515 118.044 116.158 117.218 115.37C116.393 114.582 115.37 114.141 114.365 113.717C114.49 114.461 114.626 115.03 114.301 115.847C114.033 116.524 113.468 116.95 113.682 116.165C114.382 113.642 111.849 112.139 110.851 111.925C110.551 111.86 109.975 111.643 109.195 111.018C109.105 110.945 109.023 110.922 109.023 111.046C109.023 112.552 108.606 112.904 108.495 114.276C108.27 117.035 110.91 117.837 109.93 117.786C109.123 117.738 108.552 116.927 107.871 116.14C107.44 118.031 105.811 121.559 105.629 122.134C105.265 123.284 105.629 124.421 108.811 125.02C110.294 125.299 111.598 124.523 111.054 125.554C110.793 126.059 106.239 127.222 105.217 123.851C105.098 123.459 104.433 128.727 108.594 131.921C111.895 134.456 116.124 134.002 119.637 131.161C121.812 129.403 122.385 126.804 122.046 123.786Z" fill="#45662D"/>
<path d="M95.9139 127.768C95.9918 126.637 95.4868 125.18 95.3356 124.067C94.76 126.906 91.4364 127.139 92.6893 126.237C94.2583 125.106 94.5562 124.207 94.5452 123.694C94.5328 123.052 94.1182 122.01 93.6491 121.364C93.18 120.717 92.5307 120.284 91.892 119.865C91.8846 120.394 91.9068 120.802 91.5799 121.325C91.3101 121.757 90.8672 121.979 91.1133 121.465C91.9131 119.816 90.3579 118.461 89.698 118.189C89.4993 118.106 89.1299 117.884 88.6713 117.355C88.6186 117.294 88.565 117.267 88.5494 117.353C88.3596 118.39 88.0284 118.58 87.7788 119.511C87.2765 121.383 88.9937 122.268 88.3251 122.109C87.7756 121.974 87.4843 121.343 87.1142 120.716C86.5795 121.964 85.0131 124.189 84.8148 124.562C84.4193 125.308 84.5267 126.137 86.6427 126.95C87.6292 127.329 88.6249 126.959 88.1206 127.601C87.8768 127.915 84.594 128.143 84.3148 125.692C84.2821 125.407 83.1609 128.952 85.624 131.676C87.5782 133.838 90.5478 134.058 93.3254 132.544C95.0451 131.607 95.7673 129.889 95.9139 127.768Z" fill="#45662D"/>
<path d="M100.403 106.176L100.396 106.195C100.376 106.25 100.337 106.297 100.286 106.328C100.257 106.362 100.219 106.387 100.176 106.402C99.6265 106.582 98.9322 106.299 98.3962 106.167C97.7328 106.024 97.0803 105.834 96.4435 105.599C96.0012 105.419 95.498 105.037 95.6524 104.497C95.8067 103.958 96.5043 104.019 96.9334 104.089C97.4626 104.179 97.9534 104.437 98.459 104.542C98.2814 104.182 97.9413 103.847 97.7082 103.513C97.3922 103.091 97.1086 102.646 96.86 102.181C96.639 101.728 96.4006 100.466 97.2955 100.442C98.4495 100.425 99.223 103.51 99.4688 103.762C99.5869 103.615 99.5562 103.275 99.5701 103.102C99.5935 102.748 99.799 100.636 100.407 100.64C100.737 100.642 101.175 101.129 101.213 102.973C101.234 103.986 100.952 105.302 100.401 106.161L100.403 106.176Z" fill="#F56049"/>
<path d="M101.539 112.145C101.513 112.178 101.478 112.205 101.439 112.222V112.222C101.428 112.247 101.411 112.268 101.389 112.283C101.368 112.299 101.342 112.309 101.316 112.312C101.289 112.315 101.262 112.312 101.237 112.301C101.213 112.291 101.191 112.275 101.174 112.254C101.162 112.255 101.15 112.253 101.138 112.25C101.116 112.257 101.092 112.258 101.069 112.252C101.046 112.246 101.025 112.234 101.009 112.217L100.839 112.057C100.809 112.046 100.78 112.032 100.753 112.015C99.6498 111.356 98.4374 110.93 97.3366 110.272C96.7651 109.929 95.509 109.168 95.7624 108.323C96.1862 106.922 99.5512 109.656 100.683 110.713L100.835 110.797C100.826 110.732 100.828 110.666 100.843 110.602C101.328 108.755 101.753 106.612 103.581 105.619C103.765 105.519 103.912 105.746 103.953 105.89C104.269 106.964 103.756 107.991 103.337 108.97C102.889 110.107 102.284 111.176 101.539 112.145V112.145Z" fill="#F56049"/>
<path d="M101.359 124.125C101.321 124.146 101.279 124.157 101.236 124.158C101.159 124.228 100.996 124.209 100.985 124.089C100.974 124.084 100.964 124.078 100.955 124.071C100.931 124.07 100.908 124.062 100.889 124.048C100.869 124.033 100.854 124.014 100.846 123.992L100.749 123.786C100.723 123.766 100.701 123.742 100.681 123.716C99.9058 122.698 98.9268 121.855 98.1447 120.839C97.739 120.31 96.8511 119.142 97.3976 118.448C98.3046 117.302 100.432 121.081 101.094 122.481L101.205 122.619C101.221 122.555 101.248 122.494 101.285 122.44C102.413 120.9 103.598 119.06 105.661 118.811C105.869 118.785 105.922 119.049 105.911 119.207C105.809 120.324 104.954 121.086 104.206 121.847C103.373 122.736 102.419 123.504 101.374 124.128L101.359 124.125Z" fill="#F56049"/>
<path d="M104.942 115.395C105.322 114.805 105.73 114.01 105.606 113.29C105.556 112.953 105.334 112.602 104.996 112.559C104.858 112.547 104.719 112.57 104.592 112.627C104.297 112.762 104.028 112.948 103.799 113.176C102.65 114.244 101.823 115.612 101.411 117.125C101.04 116.407 100.631 115.71 100.184 115.037C99.7042 114.336 99.1212 113.665 98.3353 113.326C97.9879 113.171 97.5454 113.102 97.2536 113.345C97.1438 113.446 97.063 113.574 97.0198 113.717C96.9765 113.86 96.9724 114.012 97.0077 114.157C97.0827 114.444 97.2191 114.711 97.4074 114.94C98.3868 116.26 99.7512 117.227 101.094 118.172C101.188 118.249 101.298 118.306 101.416 118.338C101.661 118.388 101.99 118.068 102.184 117.935C103.224 117.216 104.24 116.476 104.936 115.397L104.942 115.395Z" fill="#F56049"/>
<path d="M96.8384 125.779C97.554 126.945 98.6627 127.813 99.7981 128.661C100.009 128.817 100.351 129.175 100.65 129.16C100.783 129.143 100.912 129.101 101.029 129.035C102.636 128.26 104.276 127.47 105.49 126.267C105.719 126.068 105.896 125.816 106.007 125.533C106.056 125.387 106.062 125.231 106.025 125.082C105.987 124.933 105.908 124.797 105.795 124.693C105.477 124.414 104.967 124.428 104.556 124.538C103.639 124.784 102.915 125.376 102.311 126.018C101.752 126.632 101.229 127.279 100.744 127.953C100.355 126.334 99.5092 124.86 98.3064 123.708C98.055 123.445 97.7613 123.226 97.4376 123.06C97.2963 122.986 97.1404 122.945 96.9812 122.939C96.8018 122.951 96.6314 123.022 96.4957 123.14C96.36 123.257 96.2665 123.416 96.2293 123.592C96.0463 124.302 96.4411 125.144 96.8319 125.78L96.8384 125.779Z" fill="#F56049"/>
<path d="M97.6605 101.285C100.201 103.988 101.119 108.218 101.476 111.789C101.656 113.759 101.737 115.736 101.717 117.714C101.718 119.593 101.058 130.172 100.441 131.978C100.348 132.235 99.8949 132.187 99.9511 131.878C100.558 128.089 101.734 117.232 100.958 111.895C100.702 110.077 100.477 108.249 99.941 106.493C99.3801 104.65 98.5093 103.009 97.615 101.323C97.6115 101.314 97.611 101.305 97.6136 101.296C97.6162 101.288 97.6217 101.28 97.6292 101.275C97.6367 101.269 97.6457 101.267 97.6548 101.267C97.6639 101.268 97.6726 101.272 97.6794 101.278L97.6605 101.285Z" fill="#F56049"/>
</svg>
